<svg width="559" height="396" viewBox="0 0 559 396" fill="none" xmlns="http://www.w3.org/2000/svg">
<g clip-path="url(#clip0_6116_14501)">
<path opacity="0.1" d="M185.844 395.777C213.067 395.777 235.136 392.233 235.136 387.86C235.136 383.487 213.067 379.942 185.844 379.942C158.621 379.942 136.553 383.487 136.553 387.86C136.553 392.233 158.621 395.777 185.844 395.777Z" fill="#ef3f68"/>
<path opacity="0.1" d="M453.785 396C487.755 396 515.293 392.455 515.293 388.082C515.293 383.71 487.755 380.165 453.785 380.165C419.815 380.165 392.277 383.71 392.277 388.082C392.277 392.455 419.815 396 453.785 396Z" fill="#ef3f68"/>
<path opacity="0.1" d="M7.00117 171.1H58.3413V241.084H10.7597C10.6333 241.802 10.5119 242.526 10.3803 243.249H58.3413V299.689C58.2553 299.664 58.1794 299.633 58.0985 299.603C56.7428 299.067 55.3972 298.5 54.0516 297.893L53.1916 297.503C51.8427 296.866 50.4937 296.191 49.1447 295.48C48.6743 295.232 48.2038 294.974 47.7384 294.711C40.2495 290.515 33.4462 285.199 27.5645 278.946C27.3926 278.779 27.2307 278.602 27.0587 278.441C26.2392 277.55 25.4349 276.65 24.6558 275.729L23.7959 274.717C22.8752 273.589 21.9849 272.43 21.1198 271.257C20.9934 271.084 20.872 270.912 20.7404 270.751C17.2224 265.872 14.3013 260.59 12.0396 255.017C11.9688 254.85 11.9081 254.668 11.8423 254.511C11.1476 252.723 10.5321 250.919 9.99589 249.097C9.76319 248.333 9.54061 247.58 9.34838 246.785C9.27756 246.553 9.21686 246.325 9.16121 246.097C6.2879 234.881 5.94897 223.23 5.94897 211.66C5.94897 210.309 5.94897 208.953 5.94897 207.612C5.94897 202.933 6.00462 198.223 6.08556 193.518C6.08556 192.298 6.13614 191.084 6.16144 189.86C6.23226 186.753 6.33343 183.647 6.46496 180.541C6.49531 179.676 6.53578 178.816 6.5813 177.956C6.5813 177.46 6.6066 176.964 6.65719 176.468C6.77859 174.667 6.87977 172.881 7.00117 171.1Z" fill="#ef3f68"/>
<path opacity="0.1" d="M58.3413 93.1794H30.1798C34.7576 86.0135 39.7594 79.1276 45.1584 72.5583C49.3419 67.4182 53.7581 62.4097 58.3413 57.5833V93.1794Z" fill="#ef3f68"/>
<path opacity="0.1" d="M58.3414 95.3447V168.935H7.16309C7.16309 168.723 7.1985 168.505 7.21367 168.293C7.2592 167.711 7.30473 167.129 7.35531 166.552C7.41096 165.874 7.47166 165.191 7.53742 164.529C7.60319 163.866 7.67401 163.056 7.74989 162.323C7.82577 161.589 7.89659 160.846 7.98259 160.112C8.06858 159.378 8.14446 158.645 8.23552 157.916C8.32657 157.188 8.40751 156.449 8.50363 155.721C8.57951 155.114 8.66044 154.512 8.74138 153.904C8.85773 153.049 8.97914 152.189 9.11066 151.339C9.11066 151.213 9.14607 151.081 9.16631 150.96C10.0896 144.738 11.3477 138.57 12.935 132.484C14.5965 126.099 16.7183 119.843 19.2836 113.765C22.01 107.407 25.2023 101.258 28.8343 95.37L58.3414 95.3447Z" fill="#ef3f68"/>
<path opacity="0.1" d="M70.5984 171.095V241.084H180.255V171.095H70.5984ZM70.5984 243.244V303.347C71.2257 303.478 71.8479 303.605 72.465 303.711C73.3048 303.873 74.1394 304.02 74.9943 304.146C75.1562 304.171 75.3232 304.197 75.5002 304.212C75.8341 304.267 76.1781 304.313 76.5119 304.358C77.3567 304.475 78.1965 304.571 79.0413 304.647C79.4409 304.687 79.8456 304.723 80.2503 304.753L81.2266 304.829C81.7577 304.869 82.2838 304.9 82.8049 304.915C83.1286 304.915 83.4524 304.945 83.7863 304.955C84.0392 304.955 84.2921 304.955 84.5552 304.955C84.8182 304.955 85.1926 304.955 85.5113 304.955C85.9463 304.955 86.3813 304.955 86.8113 304.955H87.3931C87.8281 304.955 88.2632 304.955 88.6931 304.915H88.7235C89.022 304.915 89.3255 304.915 89.629 304.875C89.7132 304.88 89.7977 304.88 89.8819 304.875C90.1349 304.875 90.3878 304.875 90.6306 304.839H90.8077L92.5023 304.708C93.0588 304.657 93.6203 304.591 94.1868 304.531L95.3402 304.394C100.032 303.736 104.673 302.749 109.226 301.439C119.455 298.586 129.461 294.594 139.684 291.67C152.902 287.901 167.507 286.049 180.28 290.658V243.244H70.5984ZM180.255 93.1794V0.00503879C168.249 -0.125044 156.276 1.27928 144.627 4.1839C116.86 11.1605 91.9459 26.2924 70.5984 45.6183V93.1744H76.1022V95.3346H70.5984V168.935H180.255V95.3397H98.6991V93.1794H180.255ZM321.102 61.7065C314.233 61.4636 307.403 59.2882 301.227 55.9289C289.415 49.5038 279.981 39.5828 269.438 31.2099C247.534 13.771 220.37 3.24795 192.501 0.637433V93.1794H349.041L349.431 92.7696L321.102 61.7065ZM335.363 59.1769L350.483 75.7709V54.826C345.419 55.4533 340.983 56.9458 335.383 59.1566L335.363 59.1769ZM350.483 318.271V243.244H318.264C318.178 242.925 318.092 242.601 317.991 242.278C318.087 242.601 318.168 242.925 318.259 243.244H192.522V297.503C193.716 298.389 194.894 299.32 196.063 300.266C197.322 301.277 198.567 302.345 199.816 303.392L201.076 304.434C201.678 304.94 202.285 305.446 202.897 305.922C204.111 306.907 205.337 307.878 206.575 308.836C207.187 309.342 207.814 309.797 208.436 310.273C218.314 317.826 228.735 324.642 239.613 330.666C242.051 332.015 244.511 333.332 246.993 334.617C248.647 335.462 250.312 336.302 251.981 337.116C254.49 338.341 257.019 339.521 259.569 340.658C283.075 351.21 307.93 358.452 333.425 362.174C339.087 363.011 344.772 363.669 350.478 364.148V318.266H350.984L350.483 318.271ZM192.522 95.3397V168.935H350.503V95.3397H192.522ZM192.522 171.095V241.084H350.503V171.095H192.522ZM362.765 54.7349V78.0981L382.064 56.9205C375.67 55.8884 369.237 55.1515 362.765 54.7096V54.7349ZM362.765 171.121V241.084H516.421V171.095L362.765 171.121ZM515.86 323.826L516.401 243.244H362.765V364.952C372.662 365.368 382.575 365.25 392.459 364.598V364.598H392.631C397.353 364.301 402.052 363.869 406.73 363.303H406.836C431.791 360.398 456.192 353.887 479.276 343.972L515.86 323.826ZM546.05 182.62C545.473 181.259 544.871 179.908 544.259 178.573C543.116 176.043 541.907 173.585 540.662 171.126H528.673V241.084H558.985C558.97 221.272 553.957 201.035 546.065 182.595L546.05 182.62ZM528.673 243.269V312.58C537.212 304.394 544.426 295.029 549.621 284.324C555.869 271.434 558.727 257.475 558.959 243.259L528.673 243.269ZM528.673 150.727V168.94H539.539C536.252 162.671 532.63 156.582 528.689 150.702L528.673 150.727ZM424.465 68.4655C423.666 68.1619 422.867 67.8533 422.063 67.5548C413.58 64.4218 404.911 61.8165 396.107 59.7536L366.574 92.1676L366.008 92.7696L366.387 93.1845H471.496C456.857 83.1069 441.075 74.8008 424.481 68.4402L424.465 68.4655ZM474.576 95.365H364.92L362.765 97.338V168.935H381.654H381.685H516.442V134.255C504.251 119.51 490.182 106.427 474.592 95.3397L474.576 95.365Z" fill="#ef3f68"/>
<path opacity="0.1" d="M58.3414 132.464V168.935H7.16309C7.16309 168.723 7.1985 168.505 7.21367 168.293C7.2592 167.711 7.30473 167.129 7.35531 166.552C7.41096 165.874 7.47166 165.191 7.53742 164.529C7.60319 163.866 7.67401 163.056 7.74989 162.323C7.82577 161.589 7.89659 160.846 7.98259 160.112C8.06858 159.378 8.14446 158.645 8.23552 157.916C8.32657 157.188 8.40751 156.449 8.50363 155.721C8.57951 155.114 8.66044 154.512 8.74138 153.904C8.85773 153.049 8.97914 152.189 9.11066 151.339C9.11066 151.213 9.14607 151.081 9.16631 150.96C10.0896 144.738 11.3477 138.57 12.935 132.484L58.3414 132.464Z" fill="#ef3f68"/>
<path opacity="0.1" d="M7.00117 171.1H58.3413V241.084H10.7597C10.6333 241.802 10.5119 242.526 10.3803 243.249H58.3413V299.689C58.2553 299.664 58.1794 299.633 58.0985 299.603C56.7428 299.067 55.3972 298.5 54.0516 297.893L53.1916 297.503C51.8427 296.866 50.4937 296.191 49.1447 295.48C48.6743 295.232 48.2038 294.974 47.7384 294.711C40.2495 290.515 33.4462 285.199 27.5645 278.946C27.3926 278.779 27.2307 278.602 27.0587 278.441C26.2392 277.55 25.4349 276.65 24.6558 275.729L23.7959 274.717C22.8752 273.589 21.9849 272.43 21.1198 271.257C20.9934 271.084 20.872 270.912 20.7404 270.751C17.2224 265.872 14.3013 260.59 12.0396 255.017C11.9688 254.85 11.9081 254.668 11.8423 254.511C11.1476 252.723 10.5321 250.919 9.99589 249.097C9.76319 248.333 9.54061 247.58 9.34838 246.785C9.27756 246.553 9.21686 246.325 9.16121 246.097C6.2879 234.881 5.94897 223.23 5.94897 211.66C5.94897 210.309 5.94897 208.953 5.94897 207.612C5.94897 202.933 6.00462 198.223 6.08556 193.518C6.08556 192.298 6.13614 191.084 6.16144 189.86C6.23226 186.753 6.33343 183.647 6.46496 180.541C6.49531 179.676 6.53578 178.816 6.5813 177.956C6.5813 177.46 6.6066 176.964 6.65719 176.468C6.77859 174.667 6.87977 172.881 7.00117 171.1Z" fill="#ef3f68"/>
<path opacity="0.1" d="M109.201 105.878V168.935H70.5984V105.878H76.1022V84.5283H98.6941V105.878H109.201Z" fill="#ef3f68"/>
<path opacity="0.1" d="M109.201 171.095H70.6034V241.079H109.201V171.095Z" fill="#ef3f68"/>
<path opacity="0.1" d="M70.5984 243.249H109.201V301.429C104.647 302.738 100.007 303.723 95.3149 304.379L94.1615 304.52C93.595 304.586 93.0335 304.642 92.477 304.697C91.9206 304.753 91.3439 304.794 90.7824 304.829H90.6053C90.3625 304.829 90.0994 304.859 89.8617 304.864H89.6037C89.3002 304.864 88.9967 304.895 88.6931 304.905C88.2632 304.93 87.8332 304.935 87.3931 304.94C87.2059 304.94 87.0289 304.94 86.8417 304.94C86.4066 304.94 85.9766 304.94 85.5416 304.94H84.5855C84.3275 304.94 84.0797 304.94 83.8116 304.94L82.8352 304.905C82.3294 304.905 81.783 304.849 81.2569 304.814L80.2857 304.743L79.0767 304.632C78.2268 304.556 77.382 304.46 76.5473 304.343L75.5356 304.202L75.0298 304.131C74.185 303.999 73.3503 303.858 72.5004 303.696C71.8782 303.59 71.2611 303.458 70.6338 303.332L70.5984 243.249Z" fill="#ef3f68"/>
<path opacity="0.1" d="M350.503 98.4308H318.674V168.93H350.503V98.4308Z" fill="#ef3f68"/>
<path opacity="0.1" d="M350.508 171.095V241.084H192.522V210.896H276.672V228.704H318.674V171.095H350.508Z" fill="#ef3f68"/>
<path opacity="0.1" d="M351.009 318.286H350.503V364.198C344.804 363.716 339.121 363.06 333.455 362.23C307.948 358.495 283.082 351.239 259.569 340.668C252.78 337.612 246.13 334.277 239.618 330.661C228.74 324.634 218.318 317.818 208.436 310.268C205.954 308.365 203.504 306.419 201.086 304.429C199.412 303.048 197.747 301.632 196.063 300.256C194.894 299.309 193.716 298.379 192.522 297.488V243.249H318.254C318.168 242.925 318.082 242.601 317.991 242.283C318.087 242.601 318.178 242.925 318.264 243.249H350.503V318.256C350.675 318.261 350.842 318.276 351.009 318.286Z" fill="#ef3f68"/>
<path opacity="0.1" d="M433.515 93.1794H412.775V86.7341H422.073V67.5346C422.879 67.828 423.681 68.1299 424.481 68.4402V86.7341H433.515V93.1794Z" fill="#ef3f68"/>
<path opacity="0.1" d="M483.485 168.935H381.664C381.664 168.935 381.664 168.935 381.7 168.96L381.654 168.935H362.765V98.4359H368.117V150.545H392.576V119.684H412.78V95.3447H433.52V119.705H453.725V150.565H483.485V168.935Z" fill="#ef3f68"/>
<path opacity="0.1" d="M362.765 171.095V241.084H483.485V171.095H362.765ZM516.254 323.467L516.421 268.069H483.485V243.279H362.765V364.952C372.662 365.368 382.575 365.25 392.459 364.598V364.598H392.631C397.353 364.301 402.052 363.869 406.73 363.303H406.836C431.791 360.398 456.192 353.887 479.276 343.972" fill="#ef3f68"/>
<path opacity="0.1" d="M530.818 243.249H558.98C558.732 257.46 555.879 271.418 549.636 284.309C544.441 295.019 537.222 304.384 528.694 312.564V268.044H530.818V243.249Z" fill="#ef3f68"/>
<path opacity="0.1" d="M558.995 241.084H530.818V182.595H546.065C553.956 201.035 558.97 221.272 558.995 241.084Z" fill="#ef3f68"/>
<path opacity="0.1" d="M350.508 118.03H333.455V140.133H350.508V118.03Z" fill="#ef3f68"/>
<path opacity="0.1" d="M350.508 163.846H333.455V168.935H350.508V163.846Z" fill="#ef3f68"/>
<path opacity="0.1" d="M350.508 171.095H333.455V185.944H350.508V171.095Z" fill="#ef3f68"/>
<path opacity="0.1" d="M350.508 209.661H333.455V231.765H350.508V209.661Z" fill="#ef3f68"/>
<path opacity="0.1" d="M350.508 255.477H333.455V277.58H350.508V255.477Z" fill="#ef3f68"/>
<path opacity="0.1" d="M350.503 318.256C350.675 318.256 350.842 318.256 351.009 318.286H350.503V323.421H333.455V301.293H350.503V318.256Z" fill="#ef3f68"/>
<path opacity="0.1" d="M350.503 347.098V364.173C344.804 363.691 339.121 363.035 333.455 362.205V347.098H350.503Z" fill="#ef3f68"/>
<path opacity="0.1" d="M265.604 239.46H192.522V241.084H265.604V239.46Z" fill="#ef3f68"/>
<path opacity="0.1" d="M265.604 243.244H192.522V249.467H265.604V243.244Z" fill="#ef3f68"/>
<path opacity="0.1" d="M265.604 269.865H192.522V279.872H265.604V269.865Z" fill="#ef3f68"/>
<path opacity="0.1" d="M265.599 300.271V310.278H208.436C205.954 308.382 203.502 306.436 201.081 304.439C199.407 303.058 197.747 301.642 196.058 300.271H265.599Z" fill="#ef3f68"/>
<path opacity="0.1" d="M265.599 330.671V340.668H259.564C252.782 337.609 246.133 334.272 239.618 330.656L265.599 330.671Z" fill="#ef3f68"/>
<path opacity="0.1" d="M406.851 177.88H392.464V192.268H406.851V177.88Z" fill="#ef3f68"/>
<path opacity="0.1" d="M95.3503 110.841H80.9635V125.229H95.3503V110.841Z" fill="#ef3f68"/>
<path opacity="0.1" d="M95.3503 144.262H80.9635V158.65H95.3503V144.262Z" fill="#ef3f68"/>
<path opacity="0.1" d="M95.3503 177.682H80.9635V192.071H95.3503V177.682Z" fill="#ef3f68"/>
<path opacity="0.1" d="M95.3503 211.098H80.9635V225.486H95.3503V211.098Z" fill="#ef3f68"/>
<path opacity="0.1" d="M95.3503 244.519H80.9635V258.907H95.3503V244.519Z" fill="#ef3f68"/>
<path opacity="0.1" d="M95.3503 277.94H80.9635V292.328H95.3503V277.94Z" fill="#ef3f68"/>
<path opacity="0.1" d="M461.773 177.88H447.386V192.268H461.773V177.88Z" fill="#ef3f68"/>
<path opacity="0.1" d="M406.851 213.37H392.464V227.758H406.851V213.37Z" fill="#ef3f68"/>
<path opacity="0.1" d="M461.773 213.37H447.386V227.758H461.773V213.37Z" fill="#ef3f68"/>
<path opacity="0.1" d="M406.851 248.855H392.464V263.243H406.851V248.855Z" fill="#ef3f68"/>
<path opacity="0.1" d="M461.773 248.855H447.386V263.243H461.773V248.855Z" fill="#ef3f68"/>
<path opacity="0.1" d="M406.851 284.344H392.464V298.733H406.851V284.344Z" fill="#ef3f68"/>
<path opacity="0.1" d="M461.773 284.344H447.386V298.733H461.773V284.344Z" fill="#ef3f68"/>
<path opacity="0.1" d="M406.851 319.834H392.464V334.223H406.851V319.834Z" fill="#ef3f68"/>
<path opacity="0.1" d="M461.773 319.834H447.386V334.223H461.773V319.834Z" fill="#ef3f68"/>
<path opacity="0.1" d="M392.464 364.598V355.319H406.846V363.277L392.464 364.598Z" fill="#ef3f68"/>
<path opacity="0.1" d="M9.10559 150.95V159.181H58.3413V150.95H9.10559ZM14.0125 158.665H9.99591V151.456H14.0428L14.0125 158.665ZM18.9143 158.665H14.8674V151.456H18.9143V158.665ZM23.806 158.665H19.7591V151.456H23.806V158.665ZM28.7078 158.665H24.666V151.456H28.7129L28.7078 158.665ZM33.6046 158.665H29.5577V151.456H33.6046V158.665ZM38.5064 158.665H34.4595V151.456H38.5064V158.665ZM43.4082 158.665H39.3613V151.456H43.4082V158.665ZM48.305 158.665H44.2581V151.456H48.305V158.665ZM53.2018 158.665H49.1549V151.456H53.2018V158.665ZM58.0985 158.665H54.0516V151.456H58.0985V158.665Z" fill="#ef3f68"/>
<path opacity="0.1" d="M9.10559 174.9V183.131H58.3413V174.9H9.10559ZM14.0125 182.61H9.99591V175.421H14.0428L14.0125 182.61ZM18.9143 182.61H14.8674V175.421H18.9143V182.61ZM23.806 182.61H19.7591V175.421H23.806V182.61ZM28.7078 182.61H24.666V175.421H28.7129L28.7078 182.61ZM33.6046 182.61H29.5577V175.421H33.6046V182.61ZM38.5064 182.61H34.4595V175.421H38.5064V182.61ZM43.4082 182.61H39.3613V175.421H43.4082V182.61ZM48.305 182.61H44.2581V175.421H48.305V182.61ZM53.2018 182.61H49.1549V175.421H53.2018V182.61ZM58.0985 182.61H54.0516V175.421H58.0985V182.61Z" fill="#ef3f68"/>
<path opacity="0.1" d="M9.10559 198.86V207.107H58.3413V198.86H9.10559ZM14.0125 206.57H9.99591V199.376H14.0428L14.0125 206.57ZM18.9143 206.57H14.8674V199.376H18.9143V206.57ZM23.806 206.57H19.7591V199.376H23.806V206.57ZM28.7078 206.57H24.666V199.376H28.7129L28.7078 206.57ZM33.6046 206.57H29.5577V199.376H33.6046V206.57ZM38.5064 206.57H34.4595V199.376H38.5064V206.57ZM43.4082 206.57H39.3613V199.376H43.4082V206.57ZM48.305 206.57H44.2581V199.376H48.305V206.57ZM53.2018 206.57H49.1549V199.376H53.2018V206.57ZM58.0985 206.57H54.0516V199.376H58.0985V206.57Z" fill="#ef3f68"/>
<path opacity="0.1" d="M9.10559 222.82V231.041H58.3413V222.82H9.10559ZM14.0125 230.53H9.99591V223.331H14.0428L14.0125 230.53ZM18.9143 230.53H14.8674V223.331H18.9143V230.53ZM23.806 230.53H19.7591V223.331H23.806V230.53ZM28.7078 230.53H24.666V223.331H28.7129L28.7078 230.53ZM33.6046 230.53H29.5577V223.331H33.6046V230.53ZM38.5064 230.53H34.4595V223.331H38.5064V230.53ZM43.4082 230.53H39.3613V223.331H43.4082V230.53ZM48.305 230.53H44.2581V223.331H48.305V230.53ZM53.2018 230.53H49.1549V223.331H53.2018V230.53ZM58.0985 230.53H54.0516V223.331H58.0985V230.53Z" fill="#ef3f68"/>
<path opacity="0.1" d="M9.31799 246.775C9.51528 247.549 9.73786 248.323 9.97055 249.087V247.291H14.0175V254.485H11.8524C11.9181 254.652 11.9839 254.835 12.0497 254.991H58.3413V246.775H9.31799ZM18.9294 254.485H14.8825V247.291H18.9294V254.485ZM23.8211 254.485H19.7742V247.291H23.8211V254.485ZM28.7229 254.485H24.6659V247.291H28.7128L28.7229 254.485ZM33.6197 254.485H29.5728V247.291H33.6197V254.485ZM38.5215 254.485H34.4746V247.291H38.5215V254.485ZM43.4233 254.485H39.3764V247.291H43.4233V254.485ZM48.3201 254.485H44.2732V247.291H48.3201V254.485ZM53.2169 254.485H49.17V247.291H53.2169V254.485ZM58.1136 254.485H54.0667V247.291H58.1136V254.485Z" fill="#ef3f68"/>
<path opacity="0.1" d="M20.7505 270.735C20.877 270.897 20.9984 271.079 21.1299 271.241H23.8059V274.697C24.0942 275.041 24.3775 275.385 24.6709 275.709V271.221H28.7178V278.441H27.0788C27.2407 278.607 27.3975 278.785 27.5847 278.946H58.3564V270.735H20.7505ZM33.6045 278.441H29.5576V271.251H33.6045V278.441ZM38.5063 278.441H34.4594V271.251H38.5063V278.441ZM43.4081 278.441H39.3612V271.251H43.4081V278.441ZM48.3049 278.441H44.258V271.251H48.3049V278.441ZM53.2017 278.441H49.1548V271.251H53.2017V278.441ZM58.0984 278.441H54.0515V271.251H58.0984V278.441Z" fill="#ef3f68"/>
<path opacity="0.1" d="M47.7587 294.69C48.219 294.954 48.6895 295.196 49.165 295.459V295.206H53.2119V297.483L54.0719 297.883V295.206H58.1188V299.583C58.1964 299.621 58.2777 299.652 58.3616 299.674V294.69H47.7587Z" fill="#ef3f68"/>
<path opacity="0.1" d="M381.664 168.935H381.695H381.664ZM350.503 318.251H351.009H350.503ZM317.991 242.278C318.087 242.601 318.168 242.925 318.259 243.244C318.178 242.925 318.092 242.601 317.991 242.278ZM381.664 168.92H381.695H381.664ZM76.1224 93.1642V95.3245H98.7194V93.1642H76.1224ZM350.503 318.251H351.009H350.503ZM317.991 242.278C318.087 242.601 318.168 242.925 318.259 243.244C318.178 242.925 318.092 242.601 317.991 242.278ZM381.664 168.92H381.695H381.664ZM350.503 318.236H351.009H350.503ZM317.991 242.278C318.087 242.601 318.168 242.925 318.259 243.244C318.178 242.925 318.092 242.601 317.991 242.278Z" fill="#ef3f68"/>
<path d="M233.507 192.081C233.507 192.081 231.514 191.803 231.514 188.899C231.514 185.995 230.087 180.571 230.087 180.571C230.087 180.546 228.853 171.126 227.148 169.628C225.443 168.131 223.253 159.338 223.253 159.338C223.253 159.338 222.879 154.567 222.115 153.54C221.351 152.513 220.319 149.999 218.796 146.412C217.274 142.825 210.925 140.341 210.925 140.341C210.925 140.341 199.447 133.683 196.194 131.513C195.899 131.334 195.622 131.126 195.37 130.89C194.803 130.147 192.335 130.131 192.335 130.131C192.077 128.502 191.829 126.631 191.748 124.936C191.748 124.754 191.748 124.571 191.722 124.389C195.349 122.245 198.081 118.865 199.417 114.868C199.477 114.676 199.528 114.473 199.584 114.281C199.801 114.21 200.001 114.093 200.171 113.94C200.341 113.787 200.477 113.6 200.57 113.391C200.863 112.738 200.868 111.974 201.233 111.367C201.658 110.649 202.467 110.264 203.104 109.723C204.713 108.357 205.128 106.055 205.052 103.96C205.001 102.266 204.728 100.556 204.834 98.871L204.865 98.446C204.895 98.1931 204.931 97.9401 204.976 97.6973C205.224 96.4426 205.765 95.2588 206.069 94.0142C206.372 92.7696 206.403 91.3683 205.694 90.2957C204.657 88.7223 202.497 88.4087 200.6 88.2468C198.45 88.0646 196.528 88.3024 195.152 86.5165C194.508 85.5831 193.784 84.7079 192.987 83.901C192.704 83.6379 189.952 81.9582 189.952 81.8469C187.266 80.6029 184.222 80.3693 181.378 81.1892C179.951 81.6041 178.605 82.282 177.159 82.621C174.037 83.3596 170.446 82.5603 167.795 84.3462C166.318 85.358 165.433 86.9668 164.603 88.5351C163.929 89.8269 163.244 91.117 162.549 92.4054C161.431 94.5252 160.293 96.6804 159.823 99.0278C159.724 99.5386 159.663 100.056 159.641 100.576V100.601C159.641 100.788 159.641 100.976 159.641 101.163V101.401C159.641 101.578 159.641 101.75 159.671 101.906C159.701 102.063 159.696 102.114 159.711 102.22C159.727 102.326 159.752 102.564 159.782 102.726C159.813 102.888 159.873 103.171 159.934 103.394C159.959 103.49 159.995 103.581 160.025 103.672C160.076 103.844 160.136 104.011 160.202 104.178C160.237 104.264 160.273 104.355 160.313 104.441C160.389 104.618 160.48 104.79 160.571 104.947C160.612 105.018 160.642 105.084 160.683 105.149C160.824 105.385 160.979 105.611 161.148 105.827C162.231 107.178 163.824 108.038 165.003 109.303C165.003 109.354 165.003 109.404 165.003 109.45C165.003 109.591 165.003 109.728 165.003 109.87C165.065 112.69 165.816 115.453 167.19 117.917C168.563 120.382 170.518 122.473 172.884 124.01C172.884 124.202 172.909 124.399 172.919 124.592C173.018 126.093 173 127.601 172.864 129.099C172.658 128.857 172.4 128.664 172.109 128.534C171.819 128.404 171.503 128.342 171.184 128.351C170.967 128.34 170.749 128.359 170.537 128.406L170.491 128.371V128.416C169.378 128.69 168.008 129.848 166.697 133.142C166.697 133.142 162.711 137.634 159.676 137.447C156.641 137.26 148.957 142.122 148.957 142.122C148.957 142.122 141.46 146.989 139.851 151.947C138.952 154.758 137.874 157.509 136.624 160.183L127.356 179.281L125.646 194.433C125.646 194.433 126.592 201.172 126.405 202.199C126.218 203.226 130.295 212.489 130.295 212.489C130.295 212.489 143.767 236.161 149.27 237.375L149.665 237.097C149.9 237.22 150.15 237.314 150.409 237.375L151.542 236.576C151.61 237.467 151.581 238.363 151.456 239.247C150.697 241.585 151.739 256.838 153.064 259.828C154.39 262.818 153.919 302.021 153.919 302.021L153.732 305.482C153.732 305.482 153.732 305.593 153.778 305.785L153.732 306.605L153.869 306.676C154.01 307.773 153.964 308.887 153.732 309.969C153.257 311.487 153.064 315.777 153.064 315.777C153.064 315.777 149.275 340 151.071 344.867C152.867 349.734 154.395 355.066 154.395 355.066C154.395 355.066 156.292 361.137 154.486 362.175C152.68 363.212 147.545 364.952 148.603 367.482C149.564 369.819 153.211 376.082 153.752 376.998L153.707 377.478L152.963 385.538C153.084 386.602 153.372 387.64 153.818 388.614C154.632 390.369 156.216 392.19 159.226 391.993C159.732 391.958 160.318 391.897 160.885 391.821C166.394 391.083 173.177 388.624 173.177 388.624C172.825 388.4 172.502 388.133 172.216 387.829V387.829C171.946 387.567 171.731 387.252 171.586 386.905C171.441 386.557 171.368 386.183 171.372 385.806C171.452 384.339 168.706 377.347 168.023 375.627C167.916 375.379 167.861 375.237 167.861 375.237C167.861 375.237 174.123 368.691 173.081 362.888C173.081 362.888 166.151 358.841 168.432 356.62C170.714 354.399 174.791 348.019 174.791 348.019C174.791 348.019 174.978 324.165 174.791 320.603C174.596 318.131 174.713 315.645 175.14 313.202C175.216 312.833 175.307 312.473 175.403 312.119C178.558 312.59 181.744 312.832 184.934 312.843C186.097 312.843 187.281 312.843 188.475 312.772C188.475 313.109 188.49 313.473 188.52 313.865C188.783 319.774 189.274 330.135 189.674 333.985C190.24 339.504 193.372 354.378 193.372 354.378C193.372 354.378 187.397 358.213 194.414 367.664C194.414 367.664 194.414 371.089 193.948 371.585C193.451 373.205 193.051 374.854 192.749 376.522C192.456 378.303 192.335 380.104 192.81 381.04C193.948 383.276 200.777 383.094 200.777 383.094L200.944 383.064C202.234 382.93 203.537 383.055 204.777 383.429C206.018 383.803 207.173 384.42 208.173 385.244C210.768 387.329 220.617 386.413 225.949 385.75C228.038 385.487 229.435 385.244 229.435 385.244C229.502 385.008 229.526 384.761 229.505 384.516C229.45 383.205 228.423 380.332 221.462 377.767C221.462 377.767 214.916 373.365 215.007 369.531H214.871H214.112C214.663 369.5 215.017 369.531 215.017 369.531C215.017 369.531 212.453 360.171 213.5 359.412C214.547 358.653 211.411 348.282 211.411 348.282C211.411 348.282 209.615 330.879 209.519 329.659C209.523 328.613 209.681 327.573 209.989 326.573L209.519 317.032C209.519 317.032 209.428 313.86 209.519 312.828C209.503 311.932 209.431 311.038 209.301 310.151C209.256 309.797 209.21 309.428 209.16 309.064C211.613 308.441 213.206 307.865 213.206 307.865L212.923 274.651C215.007 270.604 215.392 261.725 215.382 255.426C215.382 251.379 215.2 248.384 215.2 248.384L218.048 243.735C218.048 243.735 218.705 238.17 217.663 236.95C217.203 236.399 217.41 235.827 217.79 235.357C217.987 235.201 218.195 235.058 218.412 234.932C218.412 234.932 218.381 234.886 218.346 234.821C218.545 234.654 218.756 234.504 218.978 234.37C218.978 234.37 217.967 232.802 218.872 232.139C219.722 232.716 220.481 233.151 221.058 233.505C221.017 233.874 220.977 234.087 220.977 234.087L221.219 233.581C221.776 233.895 222.115 234.087 222.115 234.087C222.115 234.087 226.576 225.198 226.48 223.888C226.384 222.577 229.516 217.058 229.516 217.058C229.516 217.058 229.895 214.159 231.605 212.945C233.315 211.731 232.93 202.933 232.93 202.933C232.93 202.933 233.406 198.349 234.544 196.477C235.682 194.605 233.507 192.081 233.507 192.081ZM148.137 188.18L148.223 190.3C147.717 189.485 147.353 188.899 147.353 188.899L148.137 188.18Z" fill="url(#paint0_linear_6116_14501)"/>
<path d="M222.358 230.247L221.265 234.901C221.265 234.901 212.514 230.434 210.935 224.758C209.357 219.081 213.576 216.926 213.576 216.926L221.73 220.382L222.358 230.247Z" fill="white"/>
<path opacity="0.1" d="M222.358 230.247L221.265 234.901C221.265 234.901 212.514 230.434 210.935 224.758C209.357 219.081 213.576 216.926 213.576 216.926L221.73 220.382L222.358 230.247Z" fill="black"/>
<path d="M173.243 388.654C173.243 388.654 165.149 391.629 159.585 392.003C156.631 392.201 155.078 390.389 154.278 388.644C153.842 387.674 153.56 386.641 153.444 385.583L154.167 377.564L154.552 373.295L166.374 370.224L168.048 375.343L168.205 375.733C168.878 377.443 171.574 384.399 171.493 385.851C171.49 386.223 171.561 386.592 171.704 386.935C171.847 387.279 172.057 387.59 172.323 387.85C172.594 388.156 172.903 388.426 173.243 388.654V388.654Z" fill="white"/>
<path d="M228.529 384.576C228.549 384.82 228.525 385.065 228.458 385.3C228.458 385.3 211.148 388.189 207.607 385.3C206.608 384.456 205.444 383.83 204.19 383.462C202.936 383.095 201.618 382.993 200.322 383.165C200.322 383.165 193.625 383.347 192.507 381.141C192.041 380.215 192.163 378.419 192.451 376.649C192.745 374.99 193.137 373.349 193.625 371.736L193.893 371.524L195.486 370.244L214.142 369.692H214.284C214.193 373.507 220.617 377.883 220.617 377.883C227.442 380.413 228.448 383.271 228.529 384.576Z" fill="white"/>
<path opacity="0.1" d="M228.529 384.576C228.547 384.82 228.521 385.065 228.453 385.3C228.453 385.3 211.148 388.189 207.607 385.3C206.609 384.457 205.446 383.831 204.192 383.463C202.939 383.096 201.622 382.994 200.327 383.165C200.327 383.165 193.625 383.347 192.512 381.141C192.046 380.21 192.163 378.419 192.451 376.649C195.031 376.907 199.103 377.549 200.702 379.082C203.12 381.414 207.217 383.742 209.731 383.924C211.699 384.05 223.47 384.425 228.529 384.576Z" fill="black"/>
<path opacity="0.1" d="M173.243 388.654C173.243 388.654 165.149 391.629 159.585 392.003C156.631 392.201 155.078 390.389 154.283 388.639C156.342 389.332 159.2 390.061 160.703 389.393C162.484 388.604 168.797 388.093 172.338 387.875C172.607 388.17 172.911 388.432 173.243 388.654V388.654Z" fill="black"/>
<path d="M185.252 148.926C178.575 146.331 169.985 137.756 172.13 133.749C172.607 132.738 172.89 131.646 172.965 130.531C173.103 129.017 173.123 127.495 173.026 125.978C172.875 123.493 172.576 121.02 172.13 118.571C172.13 118.571 192.977 119.042 191.763 122.113C191.409 123.013 191.353 124.576 191.449 126.327C191.545 128.077 191.798 130.056 192.061 131.73C192.426 134.027 192.79 135.777 192.79 135.777C192.79 135.777 191.515 137.563 190.766 137.659C190.018 137.756 194.834 152.624 185.252 148.926Z" fill="#CF6F80"/>
<path opacity="0.1" d="M168.19 375.733L168.033 375.905C161.801 368.367 154.263 377.762 154.263 377.762L154.152 377.564L154.536 373.295L166.358 370.224L168.033 375.343L168.19 375.733Z" fill="black"/>
<path opacity="0.1" d="M214.289 370.224C214.289 370.224 209.736 370.127 207.308 372.273C204.88 374.418 193.144 372.738 193.65 372.273C193.8 372.042 193.89 371.778 193.913 371.504L195.506 370.224L214.163 369.672C214.233 370.011 214.289 370.224 214.289 370.224Z" fill="black"/>
<path d="M175.945 311.026C175.605 311.865 175.348 312.734 175.176 313.622C174.754 316.053 174.637 318.528 174.827 320.988C175.014 324.529 174.827 348.262 174.827 348.262C174.827 348.262 170.825 354.591 168.594 356.822C166.364 359.053 173.147 363.06 173.147 363.06C174.159 368.827 168.028 375.343 168.028 375.343C161.796 367.805 154.258 377.205 154.258 377.205C154.258 377.205 150.161 370.122 149.139 367.593C148.117 365.063 153.14 363.313 154.906 362.286C156.671 361.259 154.82 355.203 154.82 355.203C154.82 355.203 153.327 349.896 151.557 345.054C149.786 340.213 153.51 316.111 153.51 316.111C153.51 316.111 153.702 311.831 154.162 310.338C154.394 309.261 154.441 308.153 154.299 307.06C154.268 306.691 154.233 306.382 154.208 306.175C154.182 305.967 154.162 305.871 154.162 305.871L154.233 305.75L156.762 301.035C156.762 301.035 177.159 308.057 175.945 311.026Z" fill="#ef3f68"/>
<path d="M214.289 369.667C214.289 369.667 209.736 369.571 207.308 371.691C204.88 373.811 193.144 372.156 193.65 371.691C194.156 371.225 194.115 367.78 194.115 367.78C187.23 358.38 193.103 354.566 193.103 354.566C193.103 354.566 190.028 339.768 189.471 334.278C189.082 330.444 188.601 320.138 188.343 314.254C188.232 311.725 188.166 309.984 188.166 309.984L193.791 308.851L194.515 308.704L208.082 305.983C208.082 305.983 208.456 308.512 208.709 310.581C208.835 311.465 208.906 312.355 208.922 313.247C208.831 314.259 208.922 317.426 208.922 317.426L209.382 326.922C209.081 327.918 208.926 328.953 208.922 329.993C209.013 331.202 210.778 348.515 210.778 348.515C210.778 348.515 213.849 358.846 212.802 359.589C211.755 360.333 214.289 369.667 214.289 369.667Z" fill="#ef3f68"/>
<path opacity="0.1" d="M191.763 122.113C191.409 123.013 191.353 124.576 191.449 126.327C188.657 128.009 185.447 128.868 182.188 128.808C178.929 128.747 175.753 127.768 173.026 125.983C172.876 123.497 172.577 121.022 172.13 118.571C172.13 118.571 192.977 119.032 191.763 122.113Z" fill="black"/>
<path d="M199.821 110.932C199.825 112.755 199.539 114.567 198.972 116.3C197.704 120.182 195.105 123.491 191.634 125.642C188.163 127.794 184.044 128.648 180.003 128.056C175.963 127.463 172.262 125.461 169.555 122.403C166.848 119.346 165.309 115.43 165.21 111.347C165.21 111.205 165.21 111.074 165.21 110.932C165.171 108.634 165.59 106.351 166.442 104.217C167.294 102.082 168.563 100.138 170.174 98.4994C171.785 96.8604 173.706 95.5586 175.826 94.67C177.945 93.7813 180.22 93.3237 182.518 93.3237C184.816 93.3237 187.092 93.7813 189.211 94.67C191.331 95.5586 193.252 96.8604 194.863 98.4994C196.474 100.138 197.743 102.082 198.595 104.217C199.447 106.351 199.866 108.634 199.826 110.932H199.821Z" fill="#CF6F80"/>
<path opacity="0.1" d="M185.252 148.926C178.575 146.331 169.985 137.756 172.13 133.749C172.607 132.738 172.89 131.646 172.965 130.531L182.106 138.044L187.762 142.683L192.061 131.735C192.426 134.032 192.79 135.783 192.79 135.783C192.79 135.783 191.515 137.568 190.766 137.665C190.018 137.761 194.834 152.624 185.252 148.926Z" fill="black"/>
<path d="M208.892 182.129L201.258 310.379L191.303 311.032L165.524 236.667L169.753 148.38L170.643 129.727L182.106 139.142L187.767 143.781L192.193 132.514L200.423 139.688L208.892 182.129Z" fill="#ef3f68"/>
<path opacity="0.1" d="M175.945 311.027C175.605 311.865 175.348 312.734 175.176 313.622C167.932 312.503 160.896 310.305 154.304 307.101L154.167 307.03L154.213 306.215L154.238 305.79L156.767 301.075C156.767 301.075 177.159 308.057 175.945 311.027Z" fill="black"/>
<path opacity="0.1" d="M193.908 313.642C192.056 313.957 190.188 314.17 188.313 314.28C188.202 311.75 188.136 310.01 188.136 310.01L193.761 308.876L193.908 313.642Z" fill="black"/>
<path opacity="0.1" d="M208.679 310.607C205.082 311.543 199.528 312.595 194.555 311.937L194.484 308.73L208.052 306.008C208.052 306.008 208.426 308.512 208.679 310.607Z" fill="black"/>
<path opacity="0.1" d="M194.464 312.524C173.724 316.065 154.729 305.912 154.729 305.912L154.911 302.471C154.911 302.471 155.381 263.47 154.076 260.481C152.771 257.491 151.754 242.328 152.493 240.001C153.231 237.674 149.796 202.776 149.796 202.776L149.24 188.61L128.874 180.359L137.979 161.377C139.209 158.715 140.267 155.978 141.146 153.181C142.73 148.253 150.08 143.412 150.08 143.412C150.08 143.412 157.617 138.575 160.597 138.757C163.576 138.939 167.481 134.477 167.481 134.477C170.365 127.126 172.975 130.455 172.975 130.455C172.975 130.804 172.975 130.455 172.833 131.543C171.822 139.612 189.193 165.11 189.441 165.561L191.095 205.862L192.77 256.863L194.464 312.524Z" fill="black"/>
<path d="M193.908 312.524C173.167 316.065 154.167 305.912 154.167 305.912L154.354 302.471C154.354 302.471 154.825 263.47 153.515 260.48C152.204 257.491 151.193 242.328 151.936 240.001C152.68 237.674 149.24 202.776 149.24 202.776L148.678 188.61L128.302 180.328L137.408 161.346C138.635 158.684 139.693 155.947 140.575 153.151C142.153 148.223 149.508 143.381 149.508 143.381C149.508 143.381 157.045 138.545 160.02 138.727C162.994 138.909 166.905 134.447 166.905 134.447C169.793 127.096 172.975 130.425 172.975 130.425C172.975 130.774 172.672 130.931 172.833 131.513C175.059 139.339 188.637 165.08 188.885 165.53L190.559 205.832L192.233 256.833L193.908 312.524Z" fill="white"/>
<path opacity="0.1" d="M188.318 166.679C186.087 165.748 174.27 152.255 174.27 152.255V149.184C173.84 148.172 171.286 148.79 169.212 149.498L170.102 130.845L171.114 131.685C173.329 139.506 188.06 166.229 188.318 166.679Z" fill="black"/>
<path d="M188.88 165.561C186.644 164.63 174.827 151.137 174.827 151.137V148.066C174.397 147.054 171.842 147.672 169.768 148.38L170.663 129.727L171.675 130.567C173.896 138.388 188.632 165.116 188.88 165.561Z" fill="white"/>
<path opacity="0.1" d="M154.729 232.853C155.007 232.853 169.151 231.365 169.151 231.365C169.151 231.365 177.715 248.207 177.154 252.305C176.592 256.403 175.575 260.03 172.13 259.388C168.685 258.745 153.59 259.894 153.59 259.894L154.729 232.853Z" fill="black"/>
<path d="M154.167 231.734C154.445 231.734 168.589 230.247 168.589 230.247C168.589 230.247 177.149 247.094 176.592 251.187C176.036 255.28 175.009 258.912 171.569 258.27C168.129 257.627 153.029 258.776 153.029 258.776L154.167 231.734Z" fill="white"/>
<path d="M164.826 223.827C164.826 223.827 177.806 230.803 178.084 232.933C178.363 235.063 171.478 232.002 169.991 231.633C169.012 231.397 168.015 231.242 167.011 231.168L157.091 231.436L164.826 223.827Z" fill="#CF6F80"/>
<path opacity="0.1" d="M184.696 167.549C185.45 167.549 186.062 166.937 186.062 166.183C186.062 165.429 185.45 164.817 184.696 164.817C183.942 164.817 183.33 165.429 183.33 166.183C183.33 166.937 183.942 167.549 184.696 167.549Z" fill="black"/>
<path d="M184.696 166.992C185.45 166.992 186.062 166.381 186.062 165.626C186.062 164.872 185.45 164.26 184.696 164.26C183.942 164.26 183.33 164.872 183.33 165.626C183.33 166.381 183.942 166.992 184.696 166.992Z" fill="#3F3D56"/>
<path opacity="0.1" d="M187.21 226.68C187.965 226.68 188.576 226.069 188.576 225.314C188.576 224.56 187.965 223.948 187.21 223.948C186.456 223.948 185.844 224.56 185.844 225.314C185.844 226.069 186.456 226.68 187.21 226.68Z" fill="black"/>
<path d="M187.21 226.119C187.965 226.119 188.576 225.507 188.576 224.753C188.576 223.998 187.965 223.387 187.21 223.387C186.456 223.387 185.844 223.998 185.844 224.753C185.844 225.507 186.456 226.119 187.21 226.119Z" fill="#3F3D56"/>
<path opacity="0.1" d="M186.057 197.115C186.811 197.115 187.423 196.503 187.423 195.749C187.423 194.994 186.811 194.383 186.057 194.383C185.302 194.383 184.691 194.994 184.691 195.749C184.691 196.503 185.302 197.115 186.057 197.115Z" fill="black"/>
<path d="M186.057 196.558C186.811 196.558 187.423 195.947 187.423 195.192C187.423 194.438 186.811 193.826 186.057 193.826C185.302 193.826 184.691 194.438 184.691 195.192C184.691 195.947 185.302 196.558 186.057 196.558Z" fill="#3F3D56"/>
<path d="M217.542 230.885C217.542 230.885 218.473 232.281 217.542 232.933C216.611 233.586 217.633 235.165 217.633 235.165C217.633 235.165 215.311 236.525 216.333 237.75C217.355 238.974 216.707 244.504 216.707 244.504L213.915 249.128C213.915 249.128 214.082 252.108 214.092 256.135C214.092 262.418 213.723 271.251 211.679 275.279L211.962 308.32C211.962 308.32 202.184 311.892 193.999 310.804L192.785 257.784C192.785 257.784 194.555 227.717 195.208 221.95C195.59 218.956 195.745 215.937 195.673 212.919C195.673 212.919 195.395 203.894 194.459 199.705C194.459 199.705 193.448 181.558 193.346 176.534C193.301 174.131 193.427 167.119 193.569 160.451C193.726 153.161 193.903 146.285 193.903 146.285L192.056 131.675C192.056 131.675 193.903 131.487 194.459 132.231C194.709 132.464 194.98 132.672 195.269 132.853V132.853C198.456 135.009 209.716 141.636 209.716 141.636C209.716 141.636 215.948 144.115 217.441 147.667C218.933 151.218 219.97 153.738 220.693 154.749C221.417 155.761 221.811 160.517 221.811 160.517C221.811 160.517 223.956 169.269 225.631 170.751C227.305 172.234 228.529 181.664 228.529 181.664L213.733 193.3C213.733 193.3 212.433 212.656 212.154 213.405C211.876 214.154 217.542 230.885 217.542 230.885Z" fill="white"/>
<path d="M218.103 230.885C218.103 230.885 219.029 232.281 218.103 232.933C217.178 233.586 218.189 235.165 218.189 235.165C218.189 235.165 215.882 236.541 216.894 237.765C217.906 238.989 217.269 244.519 217.269 244.519L214.476 249.143C214.476 249.143 214.643 252.123 214.658 256.15C214.658 262.433 214.289 271.267 212.245 275.294L212.524 308.335C212.524 308.335 202.73 311.907 194.555 310.819L193.346 257.799C193.346 257.799 195.117 227.733 195.769 221.965C196.152 218.971 196.306 215.952 196.23 212.935C196.23 212.935 195.951 203.909 195.021 199.72C195.021 199.72 194.009 181.573 193.903 176.549C193.857 174.146 193.989 167.134 194.125 160.466C194.282 153.176 194.459 146.301 194.459 146.301L192.021 131.492C192.021 131.492 194.459 131.492 195.021 132.246C195.268 132.482 195.539 132.69 195.83 132.869C199.017 135.024 210.283 141.651 210.283 141.651C210.283 141.651 216.51 144.13 218.002 147.682C219.494 151.233 220.531 153.753 221.26 154.765C221.988 155.776 222.373 160.532 222.373 160.532C222.373 160.532 224.518 169.284 226.192 170.767C227.866 172.249 229.075 181.659 229.075 181.659L214.279 193.295C214.279 193.295 212.979 212.651 212.696 213.4C212.412 214.149 218.103 230.885 218.103 230.885Z" fill="white"/>
<path opacity="0.1" d="M200.383 150.596L201.718 154.491L194.687 161.574C194.844 154.289 195.021 147.408 195.021 147.408L192.582 132.6C192.582 132.6 195.021 132.6 195.582 133.354C195.828 133.589 196.1 133.796 196.392 133.971L202.371 151.223L200.383 150.596Z" fill="black"/>
<path d="M199.821 149.478L201.162 153.373L194.13 160.456C194.287 153.166 194.464 146.29 194.464 146.29L192.021 131.482C192.021 131.482 194.464 131.482 195.021 132.236C195.269 132.47 195.54 132.679 195.83 132.858L201.814 150.105L199.821 149.478Z" fill="white"/>
<path opacity="0.1" d="M199.821 110.932C199.825 112.755 199.539 114.567 198.972 116.3C198.876 116.315 198.778 116.31 198.685 116.287C198.591 116.263 198.503 116.221 198.425 116.163C198.294 111.61 196.053 107.335 193.296 103.697C192.522 102.599 191.583 101.627 190.514 100.814C189.432 100.001 188.087 99.6207 186.74 99.7462C185.222 99.9537 183.882 100.986 182.349 101.117C180.325 101.284 178.514 99.8828 176.506 99.812C175.69 99.8198 174.884 100.002 174.144 100.345C173.403 100.689 172.744 101.187 172.211 101.805C171.156 103.054 170.372 104.508 169.91 106.075C169.114 108.452 168.681 110.935 168.625 113.441C168.599 114.858 168.463 116.634 167.148 117.15C167.247 116.108 167.128 115.057 166.8 114.063C166.472 113.07 165.941 112.155 165.241 111.377L165.21 111.347C165.21 111.205 165.21 111.074 165.21 110.932C165.171 108.634 165.59 106.351 166.442 104.217C167.294 102.082 168.563 100.138 170.174 98.4994C171.785 96.8604 173.706 95.5586 175.826 94.67C177.945 93.7813 180.22 93.3237 182.518 93.3237C184.816 93.3237 187.092 93.7813 189.211 94.67C191.331 95.5586 193.252 96.8604 194.863 98.4994C196.474 100.138 197.743 102.082 198.595 104.217C199.447 106.351 199.866 108.634 199.826 110.932H199.821Z" fill="black"/>
<path d="M189.684 83.4457C187.055 82.209 184.065 81.9751 181.276 82.788C179.875 83.2028 178.555 83.8757 177.133 84.2146C174.098 84.9482 170.557 84.1539 167.952 85.9297C166.505 86.9415 165.635 88.5402 164.826 90.0934L162.802 93.9484C161.699 96.0581 160.587 98.2032 160.126 100.525C159.666 102.847 159.944 105.448 161.416 107.315C162.489 108.676 164.072 109.531 165.235 110.811C165.932 111.589 166.461 112.503 166.788 113.496C167.116 114.488 167.235 115.538 167.137 116.578C168.458 116.072 168.584 114.291 168.615 112.875C168.671 110.369 169.104 107.886 169.899 105.509C170.361 103.941 171.145 102.486 172.201 101.239C172.735 100.621 173.393 100.123 174.134 99.7796C174.874 99.4359 175.68 99.2538 176.496 99.2454C178.519 99.3162 180.335 100.713 182.339 100.546C183.856 100.419 185.202 99.382 186.73 99.1796C188.077 99.0521 189.423 99.4329 190.503 100.247C191.573 101.059 192.51 102.032 193.281 103.131C196.043 106.768 198.284 111.033 198.415 115.597C198.987 116.016 199.811 115.47 200.095 114.823C200.378 114.175 200.388 113.416 200.747 112.799C201.162 112.085 201.956 111.706 202.578 111.17C204.157 109.809 204.551 107.517 204.49 105.438C204.43 103.358 204.025 101.249 204.42 99.2049C204.657 97.9502 205.194 96.7765 205.487 95.537C205.78 94.2975 205.816 92.9063 205.123 91.8388C204.111 90.2704 201.981 89.9618 200.125 89.8151C198.015 89.633 196.129 89.8657 194.783 88.09C194.151 87.1633 193.44 86.2932 192.658 85.4896C192.39 85.2265 189.684 83.557 189.684 83.4457Z" fill="#512E4E"/>
<path opacity="0.1" d="M134.701 190.133L129.415 180.359L127.741 195.44C127.741 195.44 128.672 202.138 128.484 203.165C128.297 204.192 132.299 213.4 132.299 213.4C132.299 213.4 145.517 236.945 150.914 238.16L169.151 225.127L164.315 218.985C164.315 218.985 162.64 218.333 162.22 218.985C162.22 218.985 153.241 203.535 152.311 202.417C151.38 201.299 151.562 199.067 151.562 199.067C151.562 199.067 150.166 197.58 150.631 196.184C151.096 194.787 147.935 189.946 147.935 189.946L150.818 187.249L134.701 190.133Z" fill="black"/>
<path d="M129.693 179.246L128.297 180.359L126.623 195.44C126.623 195.44 127.554 202.138 127.366 203.165C127.179 204.192 131.186 213.4 131.186 213.4C131.186 213.4 144.399 236.945 149.796 238.16L168.038 225.127L163.197 218.985C163.197 218.985 161.522 218.333 161.103 218.985C161.103 218.985 152.123 203.535 151.193 202.417C150.262 201.299 150.449 199.067 150.449 199.067C150.449 199.067 149.053 197.58 149.518 196.184C149.984 194.787 146.817 189.946 146.817 189.946L149.7 187.249L129.693 179.246Z" fill="white"/>
<path opacity="0.1" d="M216.333 238.327C217.344 239.556 216.707 245.075 216.707 245.075L213.915 249.699C213.915 249.699 214.082 252.684 214.092 256.706L209.397 258.174C208.973 258.306 208.523 258.335 208.085 258.259C207.648 258.182 207.235 258.002 206.881 257.733C206.527 257.464 206.242 257.114 206.051 256.713C205.859 256.312 205.767 255.871 205.78 255.426L206.59 229.316L217.542 233.505C216.611 234.153 217.633 235.741 217.633 235.741C217.633 235.741 215.311 237.097 216.333 238.327Z" fill="black"/>
<path d="M216.894 237.765C217.906 238.994 217.269 244.519 217.269 244.519L214.476 249.143C214.476 249.143 214.643 252.123 214.658 256.15L209.878 257.642C209.463 257.771 209.022 257.799 208.594 257.724C208.165 257.649 207.761 257.472 207.414 257.209C207.068 256.945 206.79 256.603 206.602 256.21C206.415 255.818 206.324 255.386 206.337 254.951L207.151 228.76L218.108 232.949C217.173 233.596 218.194 235.18 218.194 235.18C218.194 235.18 215.883 236.541 216.894 237.765Z" fill="white"/>
<path d="M220.521 225.319C220.521 225.319 219.778 230.07 217.916 230.348C216.055 230.627 215.22 238.033 213.363 237.77C211.507 237.507 212.736 230.885 212.802 229.6C212.868 228.314 210.778 222.992 212.342 221.783C213.905 220.574 218.852 221.783 218.852 221.783L220.521 225.319Z" fill="#CF6F80"/>
<path opacity="0.1" d="M224.482 188.737L227.993 181.654C227.993 181.654 229.389 187.052 229.389 189.936C229.389 192.819 231.342 193.103 231.342 193.103C231.342 193.103 233.482 195.632 232.354 197.474C231.225 199.315 230.77 203.899 230.77 203.899C230.77 203.899 231.139 212.646 229.465 213.855C227.791 215.065 227.442 217.953 227.442 217.953C227.442 217.953 224.366 223.443 224.462 224.748C224.558 226.053 220.182 234.891 220.182 234.891C220.182 234.891 222.322 223.908 209.853 219.162C209.853 219.162 209.757 215.434 210.687 214.412C211.618 213.39 213.07 212.925 212.159 207.759C211.249 202.594 211.896 196.422 211.896 195.182C211.896 193.943 214.689 186.212 214.689 186.212L224.482 188.737Z" fill="black"/>
<path d="M226 180.642L229.065 181.654C229.065 181.654 230.467 187.052 230.467 189.936C230.467 192.819 232.419 193.103 232.419 193.103C232.419 193.103 234.559 195.632 233.431 197.474C232.303 199.315 231.853 203.899 231.853 203.899C231.853 203.899 232.222 212.646 230.548 213.855C228.873 215.065 228.499 217.953 228.499 217.953C228.499 217.953 225.428 223.443 225.524 224.748C225.62 226.053 221.24 234.891 221.24 234.891C221.24 234.891 223.385 223.908 210.91 219.162C210.91 219.162 210.819 215.434 211.75 214.412C212.68 213.39 214.132 212.925 213.222 207.759C212.311 202.594 212.959 196.422 212.959 195.182C212.959 193.943 215.751 186.212 215.751 186.212L226 180.642Z" fill="white"/>
<path opacity="0.1" d="M158.29 364.224C158.29 364.224 163.177 361.153 166.384 363.384C169.591 365.615 158.29 364.224 158.29 364.224Z" fill="black"/>
<path opacity="0.1" d="M196.26 354.727C196.26 354.727 200.585 354.171 204.217 358.082C207.849 361.992 196.26 354.727 196.26 354.727Z" fill="black"/>
<g opacity="0.1">
<path opacity="0.1" d="M202.588 110.062C201.966 110.598 201.167 110.983 200.752 111.696C200.398 112.308 200.388 113.062 200.105 113.72C199.821 114.377 198.997 114.914 198.425 114.499C198.294 109.946 196.048 105.671 193.291 102.028C192.52 100.929 191.583 99.9558 190.513 99.1442C189.431 98.3301 188.083 97.9495 186.735 98.0767C185.217 98.2842 183.882 99.3162 182.349 99.4427C180.325 99.6147 178.509 98.2133 176.501 98.1425C175.685 98.1506 174.88 98.3331 174.14 98.6778C173.4 99.0224 172.743 99.5213 172.211 100.141C171.155 101.387 170.371 102.839 169.91 104.406C169.115 106.783 168.682 109.266 168.625 111.772C168.594 113.183 168.463 114.944 167.158 115.47C167.188 115.844 167.188 116.219 167.158 116.593C168.473 116.087 168.604 114.306 168.635 112.89C168.691 110.384 169.124 107.901 169.92 105.524C170.381 103.956 171.165 102.501 172.221 101.254C172.754 100.636 173.412 100.139 174.151 99.7949C174.891 99.4512 175.696 99.2691 176.511 99.2606C178.535 99.3314 180.356 100.728 182.359 100.561C183.877 100.434 185.222 99.3972 186.745 99.1948C188.093 99.0675 189.441 99.4482 190.524 100.262C191.593 101.074 192.53 102.047 193.301 103.146C196.058 106.784 198.304 111.048 198.435 115.612C199.007 116.032 199.831 115.485 200.115 114.838C200.398 114.19 200.408 113.431 200.762 112.814C201.177 112.101 201.976 111.721 202.599 111.185C204.177 109.824 204.571 107.532 204.511 105.453C204.511 105.387 204.511 105.321 204.511 105.261C204.415 107.062 203.934 108.898 202.588 110.062Z" fill="black"/>
<path opacity="0.1" d="M165.245 109.703C164.082 108.423 162.494 107.568 161.426 106.212C160.527 105.012 160.014 103.567 159.954 102.068C159.795 103.941 160.318 105.808 161.426 107.325C162.494 108.686 164.082 109.541 165.245 110.821C166.363 112.073 167.033 113.66 167.153 115.334C167.23 114.315 167.101 113.291 166.773 112.324C166.446 111.356 165.926 110.465 165.245 109.703V109.703Z" fill="black"/>
<path opacity="0.1" d="M205.497 94.4291C205.199 95.6686 204.668 96.8474 204.425 98.097C204.281 98.932 204.228 99.7802 204.268 100.627C204.285 100.144 204.337 99.6642 204.425 99.1897C204.668 97.9351 205.199 96.7613 205.497 95.5219C205.671 94.8382 205.728 94.1299 205.664 93.4274C205.633 93.7649 205.577 94.0996 205.497 94.4291V94.4291Z" fill="black"/>
</g>
<path opacity="0.1" d="M67.1433 384.794C94.3662 384.794 116.435 381.249 116.435 376.876C116.435 372.504 94.3662 368.959 67.1433 368.959C39.9204 368.959 17.8519 372.504 17.8519 376.876C17.8519 381.249 39.9204 384.794 67.1433 384.794Z" fill="#ef3f68"/>
<path d="M68.7317 225.203H65.5599V296.623H68.7317V225.203Z" fill="#535461"/>
<path d="M88.6628 296.406L88.4655 299.623L88.1822 304.176L88.0658 306.068L87.7876 310.622L87.6662 312.514L87.3829 317.067L84.1859 368.706C84.0469 370.928 83.0666 373.013 81.4446 374.537C79.8225 376.062 77.6806 376.911 75.4546 376.912H58.832C56.6066 376.911 54.4652 376.062 52.844 374.537C51.2227 373.012 50.2435 370.927 50.1058 368.706L46.9239 317.032L46.6406 312.478L46.5243 310.586L46.241 306.033L46.1247 304.141L45.8414 299.588L45.639 296.37C45.6039 295.751 45.6956 295.131 45.9086 294.548C46.1216 293.966 46.4514 293.433 46.8777 292.982C47.3041 292.532 47.8179 292.173 48.3878 291.928C48.9577 291.684 49.5716 291.558 50.1918 291.559H84.1909C84.8088 291.564 85.419 291.696 85.984 291.946C86.5489 292.197 87.0566 292.56 87.4756 293.014C87.8946 293.469 88.2161 294.004 88.4203 294.587C88.6245 295.17 88.707 295.789 88.6628 296.406V296.406Z" fill="#3F3D56"/>
<path d="M88.4655 299.623L88.1822 304.161H46.1044L45.8212 299.623H88.4655Z" fill="#9D9CB5"/>
<path d="M88.0659 306.053L87.7877 310.596H46.5041L46.2208 306.053H88.0659Z" fill="#9D9CB5"/>
<path d="M87.6663 312.494L87.3881 317.032H46.9038L46.6205 312.494H87.6663Z" fill="#9D9CB5"/>
<path d="M40.98 251.971C59.4491 265.337 67.1585 286.242 67.1585 286.242C67.1585 286.242 44.9004 285.478 26.4263 272.112C7.95213 258.745 0.257935 237.846 0.257935 237.846C0.257935 237.846 22.5058 238.605 40.98 251.971Z" fill="#ef3f68"/>
<path d="M0.242798 237.846C0.242798 237.846 23.3507 250.671 30.7616 261.29C38.1725 271.909 67.1585 286.242 67.1585 286.242" stroke="#535461" stroke-width="2" stroke-miterlimit="10"/>
<path d="M52.9033 225.046C62.9548 232.316 67.1585 243.694 67.1585 243.694C67.1585 243.694 55.0431 243.279 44.9865 236.009C34.9299 228.739 30.7363 217.356 30.7363 217.356C30.7363 217.356 42.8467 217.771 52.9033 225.046Z" fill="#ef3f68"/>
<path d="M30.7363 217.356C30.7363 217.356 43.3121 224.338 47.3438 230.115C51.3756 235.893 67.1585 243.694 67.1585 243.694" stroke="#535461" stroke-width="2" stroke-miterlimit="10"/>
<path d="M81.7527 243.117C70.2038 255.811 67.7605 272.4 67.7605 272.4C67.7605 272.4 84.0443 268.403 95.583 255.705C107.122 243.006 109.575 226.422 109.575 226.422C109.575 226.422 93.3016 230.424 81.7527 243.117Z" fill="#ef3f68"/>
<path d="M109.585 226.427C109.585 226.427 94.5409 239.44 90.7166 248.404C86.8923 257.369 67.7605 272.4 67.7605 272.4" stroke="#535461" stroke-width="2" stroke-miterlimit="10"/>
<path d="M505.697 238.65C505.697 238.65 497.345 197.094 500.542 191.924C500.542 191.924 500.659 187.118 500.466 180.991C500.466 180.758 500.466 180.526 500.466 180.288C501.029 180.663 501.615 181.001 502.222 181.3C505.167 182.813 508.549 183.25 511.783 182.534L509.253 179.716C508.646 179.043 508.014 178.315 507.882 177.424C507.751 176.534 508.115 175.74 508.429 174.945C510.832 168.874 510.958 161.24 506.329 156.606C502.419 152.71 501.468 147.682 497.224 144.125C494.123 141.52 492.418 137.7 490.809 134.007C489.449 130.885 488.078 127.739 487.299 124.43C486.692 121.845 486.449 119.168 485.614 116.644C484.78 114.119 483.216 111.666 480.773 110.537C479.903 110.138 478.937 109.91 478.143 109.379C477.101 108.676 476.473 107.532 475.72 106.531C471.89 101.471 459.066 104.451 452.996 106.505C451.346 107.023 449.818 107.869 448.504 108.994L448.56 108.903C448.605 108.827 448.661 108.752 448.711 108.676C448.047 109.213 447.473 109.854 447.012 110.573C446.127 111.974 445.757 113.608 445.019 115.126C444.128 116.922 439.176 121.936 441.306 123.954C441.455 124.09 441.626 124.199 441.811 124.278C442.611 124.611 443.491 124.699 444.341 124.531L444.25 124.749C443.522 126.53 443.15 128.435 443.152 130.359C443.152 138.671 450.006 145.41 458.47 145.41C460.061 145.412 461.642 145.168 463.159 144.687C463.194 144.879 463.225 145.071 463.26 145.263C463.26 145.339 463.285 145.415 463.296 145.491L463.027 145.865C463.014 145.842 462.999 145.82 462.982 145.8L455.04 156.899C453.826 157.754 446.835 162.814 446.44 166.608C446.025 170.762 445.611 175.623 445.611 175.623L445.555 176.666C445.208 176.956 444.802 177.167 444.365 177.285C443.928 177.403 443.471 177.424 443.026 177.349C440.547 176.944 440.547 186.455 440.547 186.455C440.547 186.455 438.898 187.973 437.765 186.657C436.631 185.342 433.637 189.799 433.637 189.799L414.869 190.609L414.439 190.634L413.427 187.502C413.319 187.172 413.084 186.898 412.774 186.74C412.464 186.582 412.105 186.552 411.773 186.657C411.695 186.683 411.619 186.715 411.546 186.754L411.475 186.794L411.343 186.885L411.278 186.946C411.241 186.979 411.207 187.014 411.176 187.052L411.116 187.123L411.085 187.153C410.968 187.315 410.891 187.501 410.859 187.698C410.828 187.895 410.843 188.096 410.903 188.286L411.773 190.973C408.151 191.701 404.448 193.755 407.468 199.412L392.161 196.583L397.113 200.742L422.68 206.019C422.341 206.626 422.563 207.506 423.621 208.746C428.173 214.093 436.47 215.545 439.808 215.92C440.69 217.892 441.791 219.759 443.091 221.485L442.803 226.812C442.803 226.812 434.35 267.417 432.802 269.476C433.583 268.59 434.299 267.648 434.942 266.658C432.488 275 429.059 286.419 428.158 288.129C426.711 290.861 425.371 301.915 427.02 302.623C427.526 302.841 428.973 302.735 431.037 302.578V303.493L430.946 338.194C430.946 338.194 431.36 359.478 430.222 361.507C429.084 363.535 428.78 367.79 428.78 367.79C428.78 367.79 424.228 376.183 420.621 379.558C420.596 379.584 420.569 379.608 420.54 379.629L420.429 378.839C420.429 378.839 416.093 384.313 406.502 384.005C406.502 384.005 400.73 387.759 409.289 387.961C417.849 388.163 428.78 387.657 428.78 387.657C428.78 387.657 436.414 376.021 442.808 377.539V386.357H444.766V377.397C445.674 376.8 446.451 376.024 447.05 375.117C447.649 374.21 448.058 373.191 448.251 372.121C448.419 371.018 448.296 369.891 447.895 368.85C447.494 367.81 446.829 366.891 445.965 366.186C445.576 365.835 445.265 365.408 445.05 364.931C444.835 364.454 444.721 363.937 444.715 363.414L444.644 363.475C444.644 363.298 444.599 363.116 444.579 362.928C444.017 358.375 443.314 348.98 445.798 342.029C449.202 332.498 450.234 319.222 447.755 311.32C446.956 308.794 446.299 306.225 445.788 303.625C445.727 303.296 445.671 302.982 445.621 302.689C447.315 302.918 448.993 303.256 450.644 303.701C456.385 305.284 468.946 305.578 479.67 305.492C479.696 305.785 479.726 306.094 479.761 306.402C479.953 308.548 480.352 310.669 480.955 312.736C482.301 316.784 482.918 334.627 482.918 334.627C482.918 334.627 484.653 349.299 483.707 355.269C483.201 358.588 482.695 361.922 482.407 365.271V365.336C482.407 365.336 479.564 373.431 477.485 377.828C477.434 377.939 477.379 378.05 477.328 378.156C476.774 378.207 476.228 378.328 475.704 378.516C475.704 378.516 472.917 384.081 470.14 385.001C467.363 385.922 468.283 388.953 474.571 387.84C480.859 386.727 490.354 385.816 490.354 385.816L490.764 380.14L492.696 377.721L492.19 383.382L494.249 382.978L493.976 376.092L497.138 372.136C497.138 372.136 500.957 368.736 495.281 362.048V362.195C495.221 362.099 495.165 361.997 495.099 361.901V361.871C494.158 360.414 493.41 357.697 494.78 352.876C497.259 344.164 498.701 336.257 498.701 336.257C498.701 336.257 504.235 315.074 497.583 305.052H497.876C497.195 303.641 496.713 302.143 496.445 300.6C496.411 300.417 496.381 300.23 496.354 300.038C501.276 299.755 506.107 298.864 510.047 296.942C510.032 296.922 507.66 246.654 505.697 238.65ZM443.208 203.59V203.692L442.196 203.742L443.208 203.59ZM439.737 204.071C439.571 204.108 439.415 204.182 439.282 204.289C438.847 204.904 438.574 205.619 438.488 206.368L436.91 206.014C436.91 206.014 435.802 205.776 434.208 205.508L433.455 204.749C435.529 204.577 437.684 204.324 439.737 204.071V204.071Z" fill="url(#paint1_linear_6116_14501)"/>
<path d="M491.958 376.163L491.356 383.332L493.374 382.927L493.071 375.151L491.958 376.163Z" fill="#1D2366"/>
<path d="M445.909 342.125C443.476 349.056 444.164 358.41 444.71 362.954C444.912 364.633 445.1 365.655 445.1 365.655C445.1 365.655 441.462 373.942 441.159 374.256C440.855 374.569 430.455 380.919 430.455 380.919L423.186 385.163C423.186 385.163 415.81 381.93 419.346 380.817C420.069 380.527 420.719 380.084 421.253 379.517C424.794 376.153 429.241 367.79 429.241 367.79C429.241 367.79 429.544 363.545 430.657 361.527C431.77 359.508 431.365 338.295 431.365 338.295L431.451 303.716V299.208L445.287 299.309C445.374 300.84 445.574 302.362 445.884 303.863C446.38 306.454 447.024 309.014 447.811 311.532C450.249 319.42 449.238 332.629 445.909 342.125Z" fill="#FFB0B1"/>
<path opacity="0.1" d="M445.1 365.655C445.1 365.655 441.462 373.942 441.159 374.256C440.855 374.569 430.455 380.919 430.455 380.919L423.186 385.163C423.186 385.163 415.81 381.93 419.346 380.817C420.069 380.528 420.719 380.084 421.253 379.517L421.567 381.728L423.99 381.627L444.73 362.964C444.912 364.633 445.1 365.655 445.1 365.655Z" fill="black"/>
<path d="M444.847 363.434L423.99 382.224L421.567 382.325L421.061 378.784C421.061 378.784 416.822 384.237 407.403 383.934C407.403 383.934 401.747 387.673 410.129 387.875C418.511 388.077 429.215 387.571 429.215 387.571C429.215 387.571 436.692 375.935 442.95 377.453V386.241H444.872V377.372C445.766 376.77 446.529 375.994 447.114 375.09C447.7 374.186 448.097 373.172 448.281 372.111C448.448 371.017 448.33 369.899 447.939 368.864C447.549 367.829 446.898 366.912 446.051 366.202C445.672 365.847 445.37 365.418 445.163 364.942C444.956 364.466 444.848 363.953 444.847 363.434V363.434Z" fill="#1D2366"/>
<path d="M493.88 352.931C492.535 357.738 493.268 360.444 494.189 361.896V361.927C495.37 363.719 496.191 365.725 496.607 367.831L496.688 368.286L487.198 382.123L482.048 384.146C482.048 384.146 473.767 381.318 475.28 380.509C475.659 380.312 476.251 379.259 476.929 377.807C478.952 373.431 481.744 365.357 481.744 365.357V365.291C482.038 361.957 482.503 358.633 483.019 355.324C483.945 349.37 482.245 334.754 482.245 334.754C482.245 334.754 481.638 316.981 480.323 312.939C479.729 310.884 479.334 308.776 479.144 306.645C478.871 304.116 478.81 302.031 478.81 302.031C478.81 302.031 484.264 294.443 494.26 302.638C495.059 303.292 495.762 304.055 496.349 304.905C503.254 314.73 497.694 336.373 497.694 336.373C497.694 336.373 496.303 344.245 493.88 352.931Z" fill="#FFB0B1"/>
<path opacity="0.1" d="M496.703 368.286L487.213 382.123L482.063 384.146C482.063 384.146 473.782 381.318 475.295 380.509C475.674 380.312 476.266 379.259 476.944 377.807C480.449 377.777 482.265 381.116 482.265 381.116L486.707 380.408C486.707 380.408 492.565 368.893 493.88 368.19C495.195 367.487 494.082 362.933 494.082 362.933V361.775C494.118 361.815 494.148 361.861 494.189 361.901V361.932C495.37 363.724 496.191 365.73 496.607 367.836L496.703 368.286Z" fill="black"/>
<path d="M482.569 381.414C482.569 381.414 480.04 376.77 475.194 378.485C475.194 378.485 472.467 384.05 469.74 384.951C467.014 385.851 467.924 388.887 474.086 387.779C480.247 386.671 489.535 385.755 489.535 385.755L489.94 380.094L496.202 372.116C496.202 372.116 499.935 368.731 494.381 362.068V363.227C494.381 363.227 495.494 367.78 494.179 368.483C492.863 369.186 487.026 380.706 487.026 380.706L482.569 381.414Z" fill="#1D2366"/>
<path opacity="0.1" d="M445.302 299.299C445.389 300.83 445.589 302.352 445.899 303.853C440.203 303.018 434.917 303.433 431.451 303.706V299.198L445.302 299.299Z" fill="black"/>
<path opacity="0.1" d="M496.91 306.165C496.91 306.165 488.816 306.559 479.165 306.64C478.891 304.111 478.831 302.026 478.831 302.026C478.831 302.026 484.284 294.438 494.28 302.633C495.079 303.287 495.782 304.05 496.369 304.9C496.526 305.331 496.706 305.753 496.91 306.165V306.165Z" fill="black"/>
<path d="M496.91 305.254C496.91 305.254 461.459 306.969 450.654 303.939C439.849 300.908 429.14 303.534 427.526 302.831C425.912 302.128 427.222 291.114 428.639 288.387C430.055 285.66 437.825 258.083 437.825 258.083L445.302 219.097L453.178 216.926L453.735 216.769L467.459 212.985L477.515 210.208C477.515 210.208 497.512 288.286 495.797 294.043C495.174 296.248 495.074 298.567 495.504 300.817C495.766 302.354 496.239 303.847 496.91 305.254V305.254Z" fill="#1D2366"/>
<path d="M419.24 192.435C419.24 192.435 412.158 200.024 417.52 204.253C422.882 208.483 426.408 204.658 426.408 204.658L419.24 192.435Z" fill="#C7DAF5"/>
<path opacity="0.1" d="M419.24 192.435C419.24 192.435 412.158 200.024 417.52 204.253C422.882 208.483 426.408 204.658 426.408 204.658L419.24 192.435Z" fill="black"/>
<path d="M476.458 142.542C476.458 142.542 475.629 143.331 474.379 144.494C472.598 146.159 469.963 148.592 467.626 150.631C464.388 153.449 461.717 155.518 462.673 153.753C463.629 151.987 463.447 148.911 462.972 146.032C462.936 145.84 462.906 145.648 462.871 145.461C462.477 143.347 461.955 141.258 461.307 139.208C461.307 139.208 466.538 132.449 469.432 129.782C470.509 128.771 471.263 128.356 471.308 129.059C471.359 130.005 472.067 132.094 472.947 134.31C472.973 134.381 472.998 134.447 473.028 134.518C473.615 136.036 474.278 137.594 474.86 138.939C475.75 141.004 476.458 142.542 476.458 142.542Z" fill="#FFB0B1"/>
<path opacity="0.1" d="M473.028 134.518C472.537 137.162 471.344 139.625 469.575 141.651C467.806 143.676 465.526 145.19 462.972 146.032C462.57 143.723 462.014 141.443 461.307 139.208C461.307 139.208 471.157 126.484 471.308 129.059C471.344 130.035 472.113 132.201 473.028 134.518Z" fill="black"/>
<path opacity="0.1" d="M461.99 149.432L463.265 147.636C463.265 147.636 464.11 152.786 467.216 150.515C470.322 148.243 470.474 167.61 470.474 167.61L467.14 217.458L443.051 216.016L443.734 191.929L446.46 179.787L453.204 162.136L457.215 156.302L461.99 149.432Z" fill="black"/>
<path d="M470.474 167.918L467.439 212.99L467.12 217.766L453.689 216.962L453.183 216.931L443.066 216.324L443.749 192.233L446.476 180.091L453.219 162.439L457.23 156.606L462.006 149.71L463.28 147.919C463.28 147.919 464.125 153.07 467.231 150.798L467.297 150.753C470.332 148.83 470.474 167.918 470.474 167.918Z" fill="#1D2366"/>
<path d="M446.815 175.871C446.815 175.871 445.606 178.401 443.177 177.991C440.749 177.581 440.754 187.098 440.754 187.098C440.754 187.098 439.141 188.615 438.028 187.3C436.915 185.985 433.981 190.432 433.981 190.432L415.598 191.241C415.598 191.241 423.777 194.98 422.174 206.292C422.174 206.292 449.946 204.572 450.856 201.946C451.767 199.32 446.815 175.871 446.815 175.871Z" fill="white"/>
<path opacity="0.03" d="M446.815 175.871C446.815 175.871 445.606 178.401 443.177 177.991C440.749 177.581 440.754 187.098 440.754 187.098C440.754 187.098 439.141 188.615 438.028 187.3C436.915 185.985 433.981 190.432 433.981 190.432L415.598 191.241C415.598 191.241 423.777 194.98 422.174 206.292C422.174 206.292 449.946 204.572 450.856 201.946C451.767 199.32 446.815 175.871 446.815 175.871Z" fill="black"/>
<path d="M393.39 197.186L398.236 201.324L438.129 209.707L433.181 204.658L393.39 197.186Z" fill="white"/>
<path d="M462.066 151.026C461.404 152.038 459.507 157.218 457.923 161.741C456.603 165.51 455.5 168.824 455.5 168.824C455.5 168.824 452.925 185.59 451.61 188.62C450.295 191.651 451.008 203.469 451.008 203.469L446.106 232.655C446.106 232.655 443.886 247.706 440.456 256.696C437.072 265.545 433.303 269.693 433.187 269.825C434.704 267.771 442.975 227.328 442.975 227.328L445.707 176.322C445.707 176.322 446.106 171.475 446.511 167.331C446.916 163.188 455.111 157.532 455.111 157.532L463.012 146.295C463.806 147.358 463.275 149.21 462.066 151.026Z" fill="white"/>
<path d="M441.462 216.577C441.462 216.577 429.828 216.071 424.192 209.302C418.557 202.533 437.218 206.6 437.218 206.6L442.069 207.714L441.462 216.577Z" fill="#FFB0B1"/>
<path opacity="0.1" d="M495.797 294.048C495.175 296.253 495.074 298.572 495.504 300.822C482.812 301.723 469.234 298.293 469.234 298.293C466.705 300.62 460.043 304.05 460.043 304.05L456.411 259.023C454.089 252.952 453.178 221.146 453.178 221.146C453.178 221.146 453.386 219.481 453.684 216.987C453.684 216.926 453.684 216.861 453.709 216.8C454.615 209.833 456.411 196.755 457.291 194.99C458.505 192.561 453.558 186.101 453.558 186.101L455.809 166.901L456.082 164.584C460.827 162.465 464.464 155.695 464.464 155.695L467.257 150.803C470.292 148.855 470.448 167.944 470.448 167.944L467.413 213.016L477.47 210.238C477.47 210.238 497.512 288.291 495.797 294.048Z" fill="black"/>
<path d="M508.823 297.159C494.988 304.03 469.841 297.665 469.841 297.665C467.312 299.992 460.65 303.423 460.65 303.423L457.013 258.396C454.696 252.325 453.785 220.518 453.785 220.518C453.785 220.518 456.709 196.786 457.923 194.362C458.277 193.654 458.105 192.602 457.686 191.469C455.621 186.075 454.862 180.269 455.47 174.526L456.441 166.274L456.709 163.962C461.459 161.837 465.096 155.068 465.096 155.068L467.626 150.636L472.28 142.471L474.485 138.606L474.86 138.945L477.718 141.535C477.718 141.535 478.932 142.547 480.753 144.064C484.714 147.403 491.558 153.282 495.089 156.879C498.195 160.046 499.176 172.365 499.46 181.639C499.647 187.745 499.536 192.531 499.536 192.531C496.404 197.686 504.594 239.075 504.594 239.075C506.501 247.074 508.823 297.159 508.823 297.159Z" fill="white"/>
<path opacity="0.03" d="M482.266 154.967C482.266 154.967 472.77 173.043 473.873 179.914C474.976 186.784 478.112 194.56 476.6 196.376C476.08 197.064 475.408 197.623 474.637 198.008C473.866 198.393 473.015 198.595 472.153 198.597C470.636 198.698 466.589 201.526 466.589 201.83C466.589 202.133 462.85 202.133 459.507 203.55C456.163 204.966 451.226 205.771 451.226 205.771C451.226 205.771 441.614 205.467 440.719 206.378C439.824 207.289 438.903 212.737 440.82 217.083C442.737 221.429 444.867 224.672 446.476 225.264C448.084 225.856 458.293 222.436 466.574 221.626C474.855 220.817 483.844 214.255 483.844 214.255C483.844 214.255 493.744 210.714 495.479 204.759C497.214 198.804 493.359 166.077 493.359 166.077C493.359 166.077 490.445 150.823 482.266 154.967Z" fill="black"/>
<path opacity="0.03" d="M481.051 153.449C481.051 153.449 471.556 171.531 472.669 178.396C473.782 185.261 476.908 193.042 475.391 194.863C474.873 195.552 474.202 196.111 473.431 196.497C472.661 196.882 471.811 197.083 470.949 197.084C469.432 197.185 465.385 200.014 465.385 200.317C465.385 200.621 461.646 200.621 458.303 202.032C454.959 203.444 450.022 204.253 450.022 204.253C450.022 204.253 440.41 203.95 439.52 204.86C438.63 205.771 437.699 211.225 439.621 215.565C441.543 219.906 443.668 223.154 445.277 223.746C446.885 224.338 457.094 220.918 465.375 220.114C473.656 219.309 482.645 212.737 482.645 212.737C482.645 212.737 492.54 209.196 494.254 203.246C495.969 197.297 492.135 164.559 492.135 164.559C492.135 164.559 489.231 149.311 481.051 153.449Z" fill="black"/>
<path d="M481.967 154.056C481.967 154.056 472.472 172.138 473.585 179.003C474.698 185.868 477.824 193.649 476.311 195.465C475.794 196.156 475.122 196.716 474.351 197.103C473.579 197.489 472.728 197.691 471.865 197.691C470.347 197.793 466.3 200.621 466.3 200.919C466.3 201.218 462.567 201.223 459.218 202.639C455.87 204.056 450.937 204.86 450.937 204.86C450.937 204.86 441.326 204.557 440.431 205.467C439.535 206.378 438.615 211.832 440.532 216.173C442.449 220.513 444.579 223.761 446.187 224.353C447.796 224.945 458.004 221.525 466.285 220.716C474.566 219.906 483.555 213.344 483.555 213.344C483.555 213.344 493.455 209.803 495.19 203.848C496.925 197.894 493.096 165.166 493.096 165.166C493.096 165.166 490.142 149.938 481.967 154.056Z" fill="white"/>
<path opacity="0.1" d="M481.76 202.553C481.76 202.553 474.172 201.036 476.812 203.565C479.453 206.095 479.438 208.311 482.67 208.209C485.903 208.108 481.76 202.553 481.76 202.553Z" fill="black"/>
<path opacity="0.1" d="M494.583 256.98C494.583 256.98 491.154 259.302 497.715 264.654C504.276 270.007 494.583 256.98 494.583 256.98Z" fill="black"/>
<path opacity="0.1" d="M488.037 276.068C488.037 276.371 486.823 287.198 491.366 289.905C495.909 292.611 488.037 276.068 488.037 276.068Z" fill="black"/>
<path d="M415.911 191.216C412.249 191.342 404.337 192.46 408.44 200.115C412.067 206.889 418.162 202.361 421.592 198.926C420.756 195.723 418.722 192.963 415.911 191.216V191.216Z" fill="#FFB0B1"/>
<path d="M421.638 198.865L421.789 198.708L421.638 198.865Z" fill="#FFB0B1"/>
<path opacity="0.1" d="M480.753 144.373C476.868 147.029 473.61 149.27 472.973 149.736C471.233 151.026 467.914 158.599 465.774 162.465C464.07 165.576 458.53 166.375 456.441 166.573L456.709 164.261C461.459 162.136 465.097 155.367 465.097 155.367L474.485 138.904L477.718 141.843C477.718 141.843 478.932 142.855 480.753 144.373Z" fill="black"/>
<path d="M480.753 144.069C476.868 146.726 473.61 148.967 472.973 149.437C471.233 150.722 467.914 158.296 465.774 162.161C464.07 165.272 458.53 166.072 456.441 166.269L456.709 163.957C461.459 161.832 465.097 155.063 465.097 155.063L474.485 138.601L477.718 141.53C477.718 141.53 478.932 142.531 480.753 144.069Z" fill="#DCE7FF"/>
<path d="M473.276 131.179C473.278 134.216 472.357 137.182 470.636 139.683C468.602 142.641 465.576 144.772 462.106 145.689C458.636 146.606 454.952 146.249 451.723 144.682C448.494 143.115 445.933 140.442 444.506 137.149C443.079 133.855 442.879 130.159 443.943 126.731C445.008 123.303 447.266 120.37 450.307 118.465C453.349 116.559 456.973 115.807 460.521 116.345C464.07 116.883 467.308 118.676 469.648 121.397C471.988 124.119 473.276 127.589 473.276 131.179V131.179Z" fill="#FFB0B1"/>
<path opacity="0.1" d="M499.46 181.644C497.405 180.38 495.732 178.582 494.619 176.443C493.774 174.773 493.212 172.846 491.771 171.662C490.471 170.6 488.735 170.342 487.117 169.866C481.795 168.293 477.333 163.436 477.166 157.891C477.085 155.28 477.9 152.675 477.53 150.09C477.321 148.627 476.739 147.242 475.841 146.068C475.395 145.506 474.906 144.98 474.379 144.494C473.671 143.827 472.927 143.179 472.28 142.471C471.872 142.032 471.515 141.548 471.217 141.029C470.977 140.604 470.782 140.154 470.636 139.688C469.624 136.592 470.545 132.919 469.432 129.787L469.371 129.615C468.951 128.502 468.096 127.389 466.907 127.303C465.719 127.217 464.702 128.204 463.569 128.644C461.196 129.565 458.636 127.996 456.659 126.398C454.681 124.799 452.45 122.973 449.936 123.327C448.271 123.565 446.956 124.698 445.423 125.285C445.077 125.419 444.72 125.522 444.356 125.593C445.653 122.358 448.036 119.676 451.096 118.007C454.156 116.338 457.702 115.787 461.124 116.448C464.546 117.11 467.63 118.943 469.848 121.632C472.066 124.321 473.278 127.698 473.276 131.184C473.278 132.236 473.168 133.286 472.947 134.315C472.973 134.386 472.998 134.452 473.028 134.523C473.615 136.041 474.278 137.599 474.86 138.944L477.718 141.535C477.718 141.535 478.932 142.547 480.753 144.064C484.714 147.403 491.558 153.282 495.089 156.879C498.195 160.056 499.166 172.37 499.46 181.644Z" fill="black"/>
<path d="M445.246 116.042C445.97 114.57 446.329 112.92 447.194 111.524C448.464 109.5 450.679 108.205 452.956 107.421C458.9 105.372 471.46 102.397 475.214 107.421C475.952 108.433 476.564 109.556 477.586 110.254C478.365 110.785 479.306 111.013 480.161 111.413C482.554 112.536 484.082 114.984 484.896 117.484C485.71 119.983 485.953 122.664 486.55 125.239C487.314 128.543 488.655 131.675 489.99 134.786C491.563 138.459 493.233 142.268 496.268 144.864C500.411 148.405 501.326 153.419 505.171 157.304C509.724 161.918 509.577 169.532 507.23 175.578C506.921 176.372 506.572 177.202 506.694 178.047C506.815 178.892 507.442 179.661 508.034 180.333L510.523 183.141C504.635 184.563 497.973 181.487 495.231 176.089C494.386 174.419 493.825 172.497 492.378 171.308C491.083 170.246 489.343 169.993 487.729 169.517C482.407 167.939 477.945 163.077 477.778 157.532C477.698 154.926 478.512 152.321 478.143 149.741C477.937 148.268 477.353 146.873 476.448 145.693C475.057 143.877 472.958 142.658 471.824 140.634C469.907 137.25 471.364 132.853 469.983 129.221C469.558 128.108 468.708 126.995 467.52 126.909C466.331 126.823 465.314 127.809 464.176 128.25C461.808 129.17 459.249 127.607 457.271 126.003C455.293 124.4 453.062 122.578 450.543 122.937C448.878 123.17 447.568 124.303 446.036 124.895C444.902 125.33 442.606 125.72 441.614 124.764C439.52 122.836 444.371 117.843 445.246 116.042Z" fill="#591D4B"/>
<path opacity="0.1" d="M496.637 174.419C495.787 172.75 495.231 170.827 493.784 169.643C492.489 168.581 490.749 168.323 489.13 167.847C483.813 166.274 479.352 161.412 479.18 155.867C479.099 153.262 479.913 150.651 479.549 148.071C479.337 146.608 478.754 145.223 477.854 144.049C476.458 142.233 474.359 141.014 473.231 138.99C471.314 135.611 472.77 131.214 471.384 127.577C470.965 126.469 470.11 125.356 468.926 125.265C467.742 125.174 466.715 126.17 465.582 126.61C463.215 127.531 460.65 125.963 458.677 124.364C456.704 122.765 454.463 120.939 451.949 121.293C450.285 121.531 448.97 122.664 447.442 123.251C446.309 123.686 444.007 124.081 443.016 123.125C440.931 121.101 445.783 116.118 446.653 114.327C447.376 112.849 447.735 111.205 448.605 109.809C448.651 109.733 448.701 109.657 448.752 109.581C448.101 110.12 447.54 110.759 447.088 111.473C446.223 112.87 445.864 114.509 445.14 115.991C444.265 117.782 439.414 122.781 441.503 124.789C442.515 125.75 444.791 125.356 445.924 124.921C447.442 124.329 448.767 123.195 450.432 122.963C452.961 122.603 455.187 124.43 457.16 126.029C459.132 127.627 461.712 129.196 464.07 128.275C465.203 127.835 466.194 126.843 467.408 126.934C468.622 127.025 469.432 128.133 469.872 129.246C471.253 132.879 469.796 137.275 471.713 140.66C472.846 142.648 474.946 143.892 476.337 145.719C477.242 146.899 477.826 148.293 478.031 149.766C478.401 152.346 477.586 154.952 477.667 157.557C477.834 163.122 482.296 167.964 487.618 169.542C489.221 170.018 490.971 170.271 492.266 171.333C493.718 172.522 494.29 174.445 495.12 176.114C497.861 181.512 504.524 184.588 510.412 183.167L509.238 181.841C504.134 181.917 498.969 179.013 496.637 174.419Z" fill="black"/>
<path opacity="0.1" d="M461.763 151.329C461.1 152.341 459.203 157.522 457.62 162.045C456.138 161.468 454.792 157.79 454.792 157.79L462.694 146.548C463.503 147.661 462.972 149.508 461.763 151.329Z" fill="black"/>
<path d="M462.066 151.026C461.404 152.038 459.507 157.218 457.923 161.741C456.441 161.169 455.095 157.486 455.095 157.486L462.997 146.25C463.806 147.358 463.275 149.21 462.066 151.026Z" fill="#DCE7FF"/>
<path d="M416.124 202.71L411.743 188.894C411.691 188.732 411.672 188.561 411.686 188.392C411.7 188.223 411.748 188.058 411.826 187.907C411.904 187.756 412.011 187.622 412.141 187.513C412.27 187.403 412.421 187.321 412.583 187.27V187.27C412.909 187.168 413.262 187.199 413.565 187.356C413.868 187.513 414.097 187.784 414.201 188.109L418.582 201.911L418.147 204.799L416.124 202.71Z" fill="#BE8B87"/>
<path opacity="0.1" d="M412.158 187.679C412.484 187.576 412.839 187.606 413.143 187.764C413.448 187.921 413.677 188.193 413.782 188.519L418.162 202.321L417.834 204.486L418.152 204.82L418.587 201.931L414.181 188.13C414.077 187.804 413.848 187.534 413.545 187.376C413.242 187.219 412.888 187.188 412.562 187.29V187.29C412.288 187.379 412.051 187.557 411.89 187.796C411.976 187.75 412.065 187.711 412.158 187.679V187.679Z" fill="white"/>
<path d="M416.124 202.71L418.582 201.931L418.223 204.299L418.147 204.82L417.429 204.071L416.124 202.71Z" fill="#EFC8C4"/>
<path d="M417.429 204.071C417.472 204.017 417.525 203.972 417.586 203.939C417.621 203.917 417.663 203.905 417.705 203.905C417.747 203.905 417.788 203.917 417.824 203.939C417.858 203.981 417.887 204.027 417.91 204.076C417.943 204.132 417.988 204.179 418.043 204.215C418.097 204.251 418.159 204.275 418.223 204.283L418.147 204.789L417.429 204.071Z" fill="#727A9C"/>
<path d="M411.718 193.801C411.718 193.801 420.504 193.75 418.435 197.489C416.366 201.228 413.134 201.678 413.134 201.678L411.718 193.801Z" fill="#FFB0B1"/>
<path d="M357.069 26.0142H356.69C341.595 26.0142 328.245 34.0026 320.566 45.7904C312.887 34.0026 299.537 26.0142 284.442 26.0142H284.063C272.735 26.1221 261.907 30.6969 253.932 38.7444C245.957 46.7918 241.48 57.6616 241.474 68.9916C241.474 83.0611 247.636 103.025 259.65 119.452C282.54 150.753 320.566 178.138 320.566 178.138C320.566 178.138 358.592 150.758 381.477 119.452C393.496 103.025 399.653 83.0611 399.653 68.9916C399.647 57.6625 395.171 46.7934 387.197 38.7461C379.223 30.6988 368.397 26.1235 357.069 26.0142V26.0142ZM351.641 121.86C349.922 121.853 348.245 121.327 346.831 120.35C345.416 119.373 344.33 117.991 343.714 116.386H334.69C334.096 116.382 333.517 116.193 333.036 115.845C332.554 115.496 332.193 115.006 332.004 114.443L329.232 106.09L320.46 136.744C320.289 137.334 319.931 137.853 319.441 138.222C318.95 138.592 318.353 138.792 317.738 138.793H317.561C316.92 138.762 316.309 138.512 315.831 138.084C315.352 137.657 315.034 137.079 314.931 136.445L305.891 82.0695L299.284 114.246C299.133 114.857 298.781 115.4 298.285 115.788C297.789 116.176 297.177 116.386 296.548 116.386H283.835C283.454 116.402 283.074 116.341 282.717 116.206C282.36 116.071 282.034 115.866 281.759 115.602C281.484 115.338 281.264 115.021 281.115 114.67C280.965 114.319 280.888 113.942 280.888 113.56C280.888 113.179 280.965 112.801 281.115 112.45C281.264 112.1 281.484 111.783 281.759 111.519C282.034 111.255 282.36 111.049 282.717 110.914C283.074 110.78 283.454 110.719 283.835 110.735H294.322L303.68 67.4739C303.834 66.8343 304.205 66.2679 304.73 65.8716C305.255 65.4753 305.901 65.2736 306.558 65.3011C307.215 65.3286 307.843 65.5835 308.333 66.0223C308.823 66.4611 309.145 67.0564 309.245 67.7066L318.477 123.175L326.338 95.7495C326.502 95.1719 326.848 94.6627 327.325 94.298C327.801 93.9333 328.383 93.7326 328.984 93.7258H329.039C329.634 93.726 330.213 93.9139 330.695 94.2628C331.176 94.6116 331.535 95.1036 331.72 95.6685L336.733 110.75H343.603C344.092 109.266 344.98 107.946 346.172 106.935C347.363 105.924 348.81 105.262 350.354 105.022C351.898 104.782 353.478 104.974 354.92 105.575C356.361 106.176 357.609 107.164 358.525 108.43C359.441 109.696 359.989 111.19 360.109 112.748C360.23 114.305 359.917 115.866 359.207 117.257C358.496 118.649 357.415 119.817 356.083 120.633C354.751 121.448 353.219 121.88 351.656 121.88L351.641 121.86Z" fill="#ef3f68"/>
</g>
<defs>
<linearGradient id="paint0_linear_6116_14501" x1="180.255" y1="392.018" x2="180.255" y2="80.7086" gradientUnits="userSpaceOnUse">
<stop stop-color="#808080" stop-opacity="0.25"/>
<stop offset="0.54" stop-color="#808080" stop-opacity="0.12"/>
<stop offset="1" stop-color="#808080" stop-opacity="0.1"/>
</linearGradient>
<linearGradient id="paint1_linear_6116_14501" x1="112917" y1="234887" x2="112917" y2="75089.4" gradientUnits="userSpaceOnUse">
<stop stop-color="#808080" stop-opacity="0.25"/>
<stop offset="0.54" stop-color="#808080" stop-opacity="0.12"/>
<stop offset="1" stop-color="#808080" stop-opacity="0.1"/>
</linearGradient>
<clipPath id="clip0_6116_14501">
<rect width="559" height="396" fill="white"/>
</clipPath>
</defs>
</svg>
