<?xml version="1.0" encoding="utf-8"?>
<!-- Generator: Adobe Illustrator 26.1.0, SVG Export Plug-In . SVG Version: 6.00 Build 0)  -->
<svg version="1.1" id="Layer_1" xmlns="http://www.w3.org/2000/svg" xmlns:xlink="http://www.w3.org/1999/xlink" x="0px" y="0px"
	 viewBox="0 0 800 195.9" style="enable-background:new 0 0 800 195.9;" xml:space="preserve">
<style type="text/css">
	.st0{fill:#324A8D;}
	.st1{fill:#EF3F68;}
	.st2{fill:#545454;}
	.st3{fill:#FFFFFF;}
</style>
<g>
	<polygon class="st0" points="668.6,64.3 651.3,64.3 651.3,54.4 696.7,54.4 696.7,64.3 679.4,64.3 679.4,101 668.6,101 	"/>
	<polygon class="st0" points="741.4,54.4 741.4,72.7 717.6,72.7 717.6,54.4 706.8,54.4 706.8,101 717.6,101 717.6,82.6 741.4,82.6 
		741.4,101 752.1,101 752.1,54.4 	"/>
	<g>
		<path class="st1" d="M134.4,45.8H84.9v27.5H57.5v49.2h27.4v27.6h49.5v-27.6h27.4V73.3h-27.4V45.8z M129,51.1v27.5h27.4v38.6H129
			v27.6H90.2v-27.6H62.9V78.7h27.4V51.1H129z"/>
		<path class="st1" d="M124.6,55.6H94.8v27.4H67.3v29.8h27.4v27.4h29.8v-27.4H152V83.1h-27.4V55.6z M118.8,61.4v27.4h27.4v18.3
			h-27.4v27.4h-18.3v-27.4H73.1V88.8h27.4V61.4H118.8z"/>
		<path class="st1" d="M53.2,68.7h27.2V41.3h58.7v27.5h27v58.3h-27.3v27.6H80.4v-27.6H53.2V68.7z M75.1,36v27.4H47.9v69.1h27.2V160
			h69.1v-27.6h27.3v-69h-27V36H75.1z"/>
		<polygon class="st0" points="441.7,54.4 452.5,54.4 452.5,72.7 476.3,72.7 476.3,54.4 487.1,54.4 487.1,101 476.3,101 476.3,82.6 
			452.5,82.6 452.5,101 441.7,101 		"/>
		<polygon class="st0" points="500.2,54.4 544.7,54.4 544.7,64.3 511,64.3 511,72.7 536,72.7 536,82.6 511,82.6 511,91.1 
			544.7,91.1 544.7,101 500.2,101 		"/>
		<path class="st0" d="M552.6,101l18.5-46.7h14.4L604,101h-11.6L588,89.6h-19.5L564,101H552.6z M572.1,79.7h12.1l-6.2-14.9
			L572.1,79.7z"/>
		<polygon class="st0" points="613.3,54.4 624.1,54.4 624.1,91.1 650,91.1 650,101 613.3,101 		"/>
		<g>
			<path class="st0" d="M208.6,101V54.4h32.2c17-0.5,19.1,24.8,3.4,27.9c0.2,0.4,0.5,0.6,0.6,1l10.7,17.8h-12.1l-10.9-18.4h-13V101
				H208.6z M219.4,72.7h21.4c2.7,0.1,3.4-2.5,3.2-4.8c0-2.1-1.1-3.6-3.2-3.6h-21.4V72.7z"/>
		</g>
		<polygon class="st0" points="266.9,54.4 266.9,101 311.4,101 311.4,91.1 277.7,91.1 277.7,82.6 302.7,82.6 302.7,72.7 277.7,72.7 
			277.7,64.3 311.4,64.3 311.4,54.4 		"/>
		<path class="st0" d="M337.8,54.4L319.3,101h11.4l4.4-11.4h19.5l4.5,11.4h11.6l-18.5-46.7H337.8z M344.8,64.7l6.2,14.9h-12.1
			L344.8,64.7z"/>
		<polygon class="st0" points="380,54.4 380,101 416.7,101 416.7,91.1 390.8,91.1 390.8,54.4 		"/>
		<polygon class="st2" points="239.9,118.1 227.2,140 214.4,118.1 211.8,118.1 211.8,147.7 214.8,147.7 214.8,124.2 226.4,143.9 
			227.9,143.9 239.5,124 239.5,147.7 242.5,147.7 242.5,118.1 		"/>
		<g>
			<path class="st2" d="M270.9,137.5h-18.6c0.1,7.6,10.9,10.3,15.5,4.8l1.7,1.9c-6.4,7.5-21,2.7-20.2-7.7
				C248.9,121.2,272.6,122.1,270.9,137.5 M252.3,135.3H268C267.6,125.6,252.7,125.6,252.3,135.3"/>
			<path class="st2" d="M297.3,116.3v31.3h-2.9v-4.4c-5.4,8.8-20.3,4-19.6-6.7c-0.7-10.6,13.9-15.4,19.5-6.9v-13.3H297.3z
				 M294.4,136.6c0.4-11.4-16.9-11.4-16.5,0C277.5,147.9,294.7,148,294.4,136.6"/>
			<path class="st2" d="M305,118.4c-0.1-2.7,4.4-2.8,4.4,0C309.5,121.2,305,121.3,305,118.4 M305.7,125.5h3v22.2h-3V125.5z"/>
			<path class="st2" d="M314.8,136.6c-0.8-10.6,14.6-15.5,20.1-6.9l-2.2,1.5c-4.5-6.5-15.3-2.8-14.9,5.4
				c-0.5,8.2,10.3,11.8,14.9,5.4l2.2,1.5C329.4,152.1,314,147.2,314.8,136.6"/>
			<path class="st2" d="M357.6,133.9v13.8h-2.9v-3.5c-12.4,13.3-28.5-12.1-0.1-9.1c1.5-8.2-9.2-8.9-13.7-4.6l-1.4-2.2
				C345.2,123.4,358.4,124,357.6,133.9 M354.6,141v-3.6C329.8,134.9,347.2,154.2,354.6,141"/>
		</g>
		<rect x="365.8" y="116.3" class="st2" width="3" height="31.3"/>
		<g>
			<path class="st2" d="M386.2,132.9c-0.8-13.3,17.6-20.1,26.3-10.7l-2,2c-7.4-7.6-21.8-2-21.2,8.7c-0.5,10.8,13.9,16.4,21.2,8.7
				l2,2C403.8,153,385.4,146.2,386.2,132.9"/>
			<path class="st2" d="M437,137.5h-18.6c0.1,7.6,10.9,10.3,15.5,4.8l1.7,1.9c-6.4,7.5-21,2.7-20.2-7.7
				C415,121.2,438.7,122.1,437,137.5 M418.4,135.3h15.8C433.7,125.6,418.8,125.6,418.4,135.3"/>
			<path class="st2" d="M463.6,134.8v12.9h-3c-0.7-5.7,3-20.5-6.7-19.7c-10.3-0.7-7.4,13.3-7.8,19.7h-3v-22.2h2.9v4.1
				C450.4,122.4,464.4,124.3,463.6,134.8"/>
			<path class="st2" d="M483.5,146.3c-13.9,7.3-11.1-10.5-11.2-18.3h-4v-2.5h4v-4.9h3v4.9h6.8v2.5h-6.8c0.6,4.6-2.9,22.5,7.1,16.2
				L483.5,146.3z"/>
			<path class="st2" d="M500.1,125.3v2.9c-10.5-1.4-8,13-8.2,19.5h-3v-22.2h2.9v4.4C493.2,126.9,496,125.3,500.1,125.3"/>
			<path class="st2" d="M524.7,137.5h-18.6c0.1,7.6,10.9,10.3,15.5,4.8l1.7,1.9c-6.4,7.5-21,2.7-20.2-7.7
				C502.7,121.2,526.4,122.1,524.7,137.5 M506.1,135.3h15.8C521.4,125.6,506.5,125.6,506.1,135.3"/>
		</g>
	</g>
</g>
</svg>
