<?xml version="1.0" encoding="utf-8"?>
<!-- Generator: Adobe Illustrator 26.1.0, SVG Export Plug-In . SVG Version: 6.00 Build 0)  -->
<svg version="1.1" id="Layer_1" xmlns="http://www.w3.org/2000/svg" xmlns:xlink="http://www.w3.org/1999/xlink" x="0px" y="0px"
	 viewBox="0 0 800 800" style="enable-background:new 0 0 800 800;" xml:space="preserve">
<style type="text/css">
	.st0{fill:#FFFFFF;}
	.st1{fill:#545454;}
	.st2{fill:#324A8D;}
	.st3{fill:#EF3F68;}
</style>
<path class="st2" d="M529.6,126.5H270.5v144.4H126.9V529h143.4v144.4h259.3V529h143.5V270.9H529.6V126.5z M501.6,154.5v144.4h143.5
	V501H501.6v144.4H298.3V501H154.9V298.9h143.5V154.5H501.6z"/>
<path class="st2" d="M478.1,178.1H321.9v143.8H178.1v156.2h143.8v143.8h156.2V478.1h143.8V321.9H478.1V178.1z M448,208.2V352h143.8
	v96H448v143.8h-96V448H208.2v-96H352V208.2H448z"/>
<path class="st2" d="M104.1,246.5h142.5V102.9h307.7v144.1h141.6v305.7H553v144.4H246.6V552.7H104.1V246.5z M218.7,75v143.6H76.2
	v361.9h142.5V725h362.1V580.5h142.9V219.1H582.1V75H218.7z"/>
</svg>
